<?xml version="1.0" encoding="UTF-8"?>
<svg id="Layer_2" data-name="Layer 2" xmlns="http://www.w3.org/2000/svg" viewBox="0 0 14.62 14.62">
  <defs>
    <style>
      .cls-1 {
        fill: #60b049;
        stroke-width: 0px;
      }
    </style>
  </defs>
  <g id="_レイアウト" data-name="レイアウト">
    <g>
      <path class="cls-1" d="M2.85,2.98c-.45-.86-.25-1.71.34-2.32.7-.72,1.82-.76,2.53-.08.84.81.99,1.89,1.07,2.94.08,1.01.11,2.88.1,3.35h-.01c-.47.04-2.35.09-3.36.04-1.05-.05-2.14-.15-2.98-.96-.69-.67-.73-1.79-.02-2.52.59-.62,1.44-.86,2.32-.44h.01Z"/>
      <path class="cls-1" d="M11.77,11.63c.45.86.25,1.71-.34,2.32-.7.72-1.82.76-2.53.08-.84-.81-.99-1.89-1.07-2.94-.08-1.01-.11-2.88-.1-3.35h.01c.47-.04,2.35-.09,3.36-.04,1.05.05,2.14.15,2.98.96.69.67.73,1.79.02,2.52-.59.62-1.44.86-2.32.44h-.01Z"/>
      <path class="cls-1" d="M2.98,11.77c-.86.45-1.71.25-2.32-.34-.72-.7-.76-1.82-.08-2.53.81-.84,1.89-.99,2.94-1.07,1.01-.08,2.88-.11,3.35-.1h.01c.02.48.07,2.36.03,3.37-.05,1.05-.15,2.14-.96,2.98-.67.69-1.79.73-2.52.02-.62-.59-.86-1.44-.44-2.32h-.01Z"/>
      <path class="cls-1" d="M11.63,2.85c.86-.45,1.71-.25,2.32.34.72.7.76,1.82.08,2.53-.81.84-1.89.99-2.94,1.07-1.01.08-2.88.11-3.35.1h-.01c-.02-.48-.07-2.36-.03-3.37.05-1.05.15-2.14.96-2.98.67-.69,1.79-.73,2.52-.02.62.59.86,1.44.44,2.32h.01Z"/>
    </g>
  </g>
</svg>