<?xml version="1.0" encoding="UTF-8"?>
<svg id="Layer_2" data-name="Layer 2" xmlns="http://www.w3.org/2000/svg" xmlns:xlink="http://www.w3.org/1999/xlink" viewBox="0 0 197.26 274.76">
  <defs>
    <style>
      .cls-1 {
        fill: #f9c3c5;
      }

      .cls-2 {
        fill: #9e7f64;
      }

      .cls-3 {
        fill: #f9c3c0;
      }

      .cls-4 {
        fill: #f58a8e;
      }

      .cls-5 {
        fill: #dee9e9;
      }

      .cls-6 {
        fill: #ecf2f2;
      }

      .cls-7 {
        fill: #7b502c;
      }

      .cls-8 {
        fill: none;
      }

      .cls-9 {
        fill: #fee4ce;
      }

      .cls-10 {
        clip-path: url(#clippath-1);
      }

      .cls-11 {
        fill: #bfd4d5;
      }

      .cls-12 {
        fill: #f0ad2c;
      }

      .cls-13 {
        fill: #ed9d03;
      }

      .cls-14 {
        clip-path: url(#clippath);
      }
    </style>
    <clipPath id="clippath">
      <path id="SVGID" class="cls-8" d="M100.08,72.05c-10.71,6.18-19.36,21.16-19.32,33.46.03,12.3,8.74,17.26,19.45,11.08,10.7-6.18,19.36-21.16,19.32-33.46-.03-12.3-8.74-17.26-19.45-11.08Z"/>
    </clipPath>
    <clipPath id="clippath-1">
      <polygon id="SVGID-3" data-name="SVGID" class="cls-4" points="76.81 85.06 120.37 60.23 120.18 108.62 76.62 133.45 76.81 85.06"/>
    </clipPath>
  </defs>
  <g id="_レイアウト" data-name="レイアウト">
    <g>
      <path class="cls-5" d="M191.28,2.85l-4-2.31c1.32-.76,2.81-.67,3.98,0l4.01,2.31c-1.16-.67-2.66-.76-3.98,0Z"/>
      <path class="cls-6" d="M76.02,69.4L191.28,2.85c2.66-1.54,5.99.38,5.99,3.46v194.89c0,2.67-1.43,5.15-3.74,6.48l-115.26,66.55c-2.66,1.54-5.99-.38-5.99-3.46V75.88c0-2.67,1.43-5.15,3.74-6.48Z"/>
      <path class="cls-11" d="M72.27,270.76c0,1.55.84,2.8,2.02,3.47l-4-2.33c-1.18-.67-2.01-1.92-2.01-3.47l4,2.32"/>
      <polygon class="cls-11" points="72.27 75.88 68.27 73.64 68.28 268.44 72.27 270.76 72.27 75.88"/>
      <path class="cls-5" d="M72.27,75.88l-4.01-2.24c0-2.67,1.44-5.21,3.75-6.55l4,2.31c-2.32,1.26-3.74,3.81-3.74,6.48Z"/>
      <polygon class="cls-5" points="72.02 67.09 76.02 69.4 191.28 2.85 187.28 .54 72.02 67.09"/>
      <polygon class="cls-11" points="82.46 143.72 188.23 82.83 188.23 89.11 82.46 150 82.46 143.72"/>
      <polygon class="cls-11" points="81.73 159.05 187.5 98.17 187.5 104.45 81.73 165.34 81.73 159.05"/>
      <polygon class="cls-11" points="82.46 216.98 188.23 156.09 188.23 162.38 82.46 223.26 82.46 216.98"/>
      <polygon class="cls-11" points="81.73 232.32 187.5 171.43 187.5 177.71 81.73 238.6 81.73 232.32"/>
      <polygon class="cls-11" points="81.73 247.65 187.5 186.77 187.5 193.05 81.73 253.93 81.73 247.65"/>
      <polygon class="cls-11" points="125.8 59.49 188.23 23.44 188.23 29.72 125.8 65.77 125.8 59.49"/>
      <polygon class="cls-11" points="125.8 81.46 188.23 45.42 188.23 51.7 125.8 87.74 125.8 81.46"/>
      <polygon class="cls-11" points="125.8 94.46 188.23 58.42 188.23 64.7 125.8 100.75 125.8 94.46"/>
      <polygon class="cls-11" points="125.8 148.36 188.23 112.32 188.23 118.6 125.8 154.64 125.8 148.36"/>
      <polygon class="cls-11" points="125.8 162.77 188.23 126.72 188.23 133.01 125.8 169.05 125.8 162.77"/>
      <polygon class="cls-11" points="125.8 177.18 188.23 141.13 188.23 147.41 125.8 183.46 125.8 177.18"/>
      <polygon class="cls-11" points="82.46 173.18 118.94 152.12 118.94 186.77 82.46 207.84 82.46 173.18"/>
      <g class="cls-14">
        <g>
          <polygon id="SVGID-2" data-name="SVGID" class="cls-4" points="76.81 85.06 120.37 60.23 120.18 108.62 76.62 133.45 76.81 85.06"/>
          <g class="cls-10">
            <polygon class="cls-3" points="113.59 109.92 114.35 115.44 110.03 117.7 109.56 112.86 113.59 109.92"/>
            <polygon class="cls-3" points="85.19 123.42 84.38 129.69 88.69 127.84 89.2 122.54 85.19 123.42"/>
            <path class="cls-2" d="M105.71,90.52c-.35,1.09-.08,2.02.37,2.68s1.09,1.11,1.55,1.76c1.17,1.64,1.11,4.49-.06,7.24-.53,1.26-1.48,2.69-2.58,3.04-1.43.47-2.56,1.12-3.43.34-.87-.78-1.08-2.37-.52-4.02.16-.46.37-.93.45-1.38.2-1.1-.42-1.75-.71-2.59-.43-1.25-.08-3.09.89-4.69.97-1.6,2.52-2.91,3.96-3.34.13.31.22.52.08.95Z"/>
            <path class="cls-3" d="M95.28,106.06c0,2.15,3.28,2.33,4.26,1.86.98-.46,4.28-3.78,4.29-5.93s.96-3.53-4.26-1.04c-5.22,2.48-4.28,2.95-4.29,5.11Z"/>
            <polygon class="cls-9" points="105.76 100.85 99.87 107 93.76 106.33 99.37 121.19 105.76 100.85"/>
            <path class="cls-1" d="M84.93,116.75c.78-1.83,1.58-3.69,2.68-5.36,2.63-4.02,6.46-6.24,9.54-9.73,0,0-2.01,7.24,2.37,17.55,2.01-6.58,2.72-11.28,2.89-14.46.2-3.82-.36-5.42-.36-5.42,3.06.57,6.89-.85,9.5.68,1.08.63,1.87,1.74,2.64,2.83.72,1.01,1.43,2.02,2.15,3.03-.23,1.38-.56,2.97-1.54,4.03-.61.67-1.35.96-2.01,1.49-1.55,1.25-1.15,3.06-2.91,3.21-.29,1.18-.43,2.33-.44,3.42-3.11,1.62-6.76,3.5-9.42,4.9v.05c-.17.07-.34.15-.52.22-.17.09-.35.18-.52.28v-.06c-2.65,1.12-6.3,2.71-9.41,4.05,0-1.08-.14-2.1-.41-3.01-1.76,1.53-1.34-.68-2.89-.45-.66.1-1.4.5-2.01.41-.97-.13-1.29-1.41-1.51-2.58.73-1.69,1.45-3.39,2.18-5.08Z"/>
            <path class="cls-3" d="M99.53,93.4c-1.3.62-2,2.01-2,2.92l-.68,6.46c.06,1.03,1.3,1.3,2.79.6,1.48-.7,2.64-2.12,2.58-3.15l-.62-6.12c-.05-.91-.77-1.33-2.07-.71Z"/>
            <path class="cls-3" d="M99.14,78.59c-4.5,2.18-5.76,7.09-5.78,12.32-.03,6.82,2.45,7.85,4.25,7.66,2.19-.23,5.95-1.4,7.64-7.56,1.01-3.67.99-9.2.45-11.09-.47-1.65-2.06-3.5-6.56-1.32Z"/>
            <path class="cls-7" d="M105.81,85.6c-3.54-.5-4.76-5.4-4.76-5.4,0,0-3.93,8.86-7.69,10.71-.55.1-.85,1.48-1.18.81-2-4.05,2.01-13.11,3.71-12.99,2.98-5.56,8.18-6.02,10.67-4.21,2.28,1.66,2.69,5.99,1.1,11.08-.4,1.27-.85-.49-1.85,0Z"/>
            <path class="cls-3" d="M104.95,87.88s.1-2.16,1.64-2.62c1.31-.39,1.28.64.89,2.58-.39,1.95-1.3,3.22-2.23,3.61s-.3-3.58-.3-3.58Z"/>
            <path class="cls-7" d="M105.03,87.16c.37,1.29.25,2.98-.33,4.64-.3.85-.73,1.81-.54,2.47.17.58.64.49.83,1.05.19.57-.11,1.53-.62,2.24.82-.94,1.29-2.36,1.12-3.37-.06-.34-.18-.64-.24-.98-.33-1.86,1.19-4.52.98-6.46-.09-.79-.46-1.37-.72-2.02-.26-.65-.35-1.38-.13-2.28-1.57,2.17-.83,3.07-.35,4.72Z"/>
            <path class="cls-3" d="M94.25,92.23s-.08-2.08-1.62-1.07c-1.31.86-1.29,1.86-.91,3.44s1.28,1.99,2.21,1.5c.92-.49.33-3.88.33-3.88Z"/>
            <path class="cls-7" d="M94.11,92.96c-.36,1.65-.24,3.22.35,4.3.3.56.73,1.1.54,1.95-.16.74-.63,1.1-.82,1.84-.19.76.12,1.42.63,1.64-.82-.15-1.3-1.11-1.13-2.28.06-.4.18-.81.24-1.21.32-2.18-1.21-3.36-1-5.5.08-.88.45-1.81.71-2.72.25-.89.34-1.71.12-2.4,1.58.64.84,2.27.37,4.37Z"/>
          </g>
        </g>
      </g>
    </g>
    <g>
      <g>
        <polygon class="cls-13" points="7.3 49.57 4.29 41.12 0 38.53 4.49 32.75 7.96 21.96 10.96 30.4 15.26 32.99 10.77 38.77 7.3 49.57"/>
        <polygon class="cls-13" points="7.37 49.63 4.35 41.18 .06 38.6 4.56 32.82 8.02 22.02 11.03 30.47 15.33 33.06 10.83 38.84 7.37 49.63"/>
        <polygon class="cls-13" points="7.43 49.7 4.42 41.25 .13 38.66 4.62 32.88 8.09 22.09 11.09 30.53 15.39 33.12 10.9 38.9 7.43 49.7"/>
        <polygon class="cls-13" points="7.5 49.76 4.48 41.31 .19 38.73 4.69 32.95 8.15 22.15 11.16 30.6 15.46 33.19 10.96 38.97 7.5 49.76"/>
        <polygon class="cls-13" points="7.56 49.83 4.54 41.37 .26 38.79 4.75 33.01 8.22 22.22 11.22 30.66 15.52 33.25 11.03 39.03 7.56 49.83"/>
        <polygon class="cls-13" points="7.63 49.89 4.61 41.44 .32 38.86 4.82 33.08 8.28 22.28 11.29 30.72 15.59 33.32 11.09 39.1 7.63 49.89"/>
        <polygon class="cls-13" points="7.69 49.96 4.67 41.5 .39 38.92 4.88 33.14 8.35 22.34 11.35 30.79 15.65 33.38 11.15 39.16 7.69 49.96"/>
        <polygon class="cls-13" points="7.76 50.02 4.74 41.57 .45 38.99 4.94 33.21 8.41 22.41 11.42 30.85 15.71 33.45 11.22 39.23 7.76 50.02"/>
        <polygon class="cls-13" points="7.82 50.09 4.8 41.63 .52 39.05 5.01 33.27 8.48 22.47 11.48 30.92 15.78 33.51 11.28 39.29 7.82 50.09"/>
        <polygon class="cls-13" points="7.88 50.15 4.87 41.7 .58 39.12 5.07 33.34 8.54 22.54 11.55 30.98 15.84 33.57 11.35 39.36 7.88 50.15"/>
        <polygon class="cls-13" points="7.95 50.22 4.93 41.76 .65 39.18 5.14 33.4 8.61 22.6 11.61 31.05 15.91 33.64 11.41 39.42 7.95 50.22"/>
        <polygon class="cls-13" points="8.01 50.28 5 41.83 .71 39.24 5.2 33.47 8.67 22.67 11.68 31.11 15.97 33.7 11.48 39.49 8.01 50.28"/>
        <polygon class="cls-13" points="8.08 50.35 5.06 41.89 .78 39.31 5.27 33.53 8.74 22.73 11.74 31.18 16.04 33.77 11.54 39.55 8.08 50.35"/>
        <polygon class="cls-13" points="8.14 50.41 5.13 41.96 .84 39.37 5.33 33.6 8.8 22.8 11.81 31.24 16.1 33.83 11.61 39.62 8.14 50.41"/>
        <polygon class="cls-13" points="8.21 50.47 5.19 42.02 .91 39.44 5.4 33.66 8.87 22.86 11.87 31.31 16.17 33.9 11.67 39.68 8.21 50.47"/>
        <polygon class="cls-13" points="8.27 50.54 5.26 42.09 .97 39.5 5.46 33.72 8.93 22.93 11.94 31.37 16.23 33.96 11.74 39.74 8.27 50.54"/>
        <polygon class="cls-13" points="8.34 50.6 5.32 42.15 1.04 39.57 5.53 33.79 8.99 22.99 12 31.44 16.3 34.03 11.8 39.81 8.34 50.6"/>
        <polygon class="cls-13" points="8.4 50.67 5.39 42.22 1.1 39.63 5.59 33.85 9.06 23.06 12.06 31.5 16.36 34.09 11.87 39.87 8.4 50.67"/>
        <polygon class="cls-13" points="8.47 50.73 5.45 42.28 1.16 39.7 5.66 33.92 9.12 23.12 12.13 31.57 16.43 34.16 11.93 39.94 8.47 50.73"/>
        <polygon class="cls-13" points="8.53 50.8 5.52 42.34 1.23 39.76 5.72 33.98 9.19 23.19 12.19 31.63 16.49 34.22 12 40 8.53 50.8"/>
        <polygon class="cls-13" points="8.6 50.86 5.58 42.41 1.29 39.83 5.79 34.05 9.25 23.25 12.26 31.7 16.56 34.29 12.06 40.07 8.6 50.86"/>
        <polygon class="cls-13" points="8.66 50.93 5.64 42.47 1.36 39.89 5.85 34.11 9.32 23.32 12.32 31.76 16.62 34.35 12.12 40.13 8.66 50.93"/>
        <polygon class="cls-13" points="8.73 50.99 5.71 42.54 1.42 39.96 5.92 34.18 9.38 23.38 12.39 31.82 16.68 34.42 12.19 40.2 8.73 50.99"/>
        <polygon class="cls-13" points="8.79 51.06 5.77 42.6 1.49 40.02 5.98 34.24 9.45 23.44 12.45 31.89 16.75 34.48 12.25 40.26 8.79 51.06"/>
        <polygon class="cls-13" points="8.85 51.12 5.84 42.67 1.55 40.09 6.04 34.31 9.51 23.51 12.52 31.95 16.81 34.55 12.32 40.33 8.85 51.12"/>
        <polygon class="cls-13" points="8.92 51.19 5.9 42.73 1.62 40.15 6.11 34.37 9.58 23.57 12.58 32.02 16.88 34.61 12.38 40.39 8.92 51.19"/>
        <polygon class="cls-13" points="8.98 51.25 5.97 42.8 1.68 40.22 6.17 34.44 9.64 23.64 12.65 32.08 16.94 34.67 12.45 40.46 8.98 51.25"/>
        <polygon class="cls-13" points="9.05 51.32 6.03 42.86 1.75 40.28 6.24 34.5 9.71 23.7 12.71 32.15 17.01 34.74 12.51 40.52 9.05 51.32"/>
        <polygon class="cls-13" points="9.11 51.38 6.1 42.93 1.81 40.34 6.3 34.57 9.77 23.77 12.78 32.21 17.07 34.8 12.58 40.59 9.11 51.38"/>
        <polygon class="cls-13" points="9.18 51.45 6.16 42.99 1.88 40.41 6.37 34.63 9.84 23.83 12.84 32.28 17.14 34.87 12.64 40.65 9.18 51.45"/>
        <polygon class="cls-13" points="9.24 51.51 6.23 43.06 1.94 40.47 6.43 34.7 9.9 23.9 12.91 32.34 17.2 34.93 12.71 40.72 9.24 51.51"/>
        <polygon class="cls-13" points="9.31 51.57 6.29 43.12 2.01 40.54 6.5 34.76 9.96 23.96 12.97 32.41 17.27 35 12.77 40.78 9.31 51.57"/>
        <polygon class="cls-13" points="9.37 51.64 6.36 43.19 2.07 40.6 6.56 34.82 10.03 24.03 13.03 32.47 17.33 35.06 12.84 40.84 9.37 51.64"/>
        <polygon class="cls-13" points="9.44 51.7 6.42 43.25 2.13 40.67 6.63 34.89 10.09 24.09 13.1 32.54 17.4 35.13 12.9 40.91 9.44 51.7"/>
        <polygon class="cls-13" points="9.5 51.77 6.49 43.32 2.2 40.73 6.69 34.95 10.16 24.16 13.16 32.6 17.46 35.19 12.97 40.97 9.5 51.77"/>
        <polygon class="cls-13" points="9.57 51.83 6.55 43.38 2.26 40.8 6.76 35.02 10.22 24.22 13.23 32.67 17.53 35.26 13.03 41.04 9.57 51.83"/>
        <polygon class="cls-13" points="9.63 51.9 6.61 43.44 2.33 40.86 6.82 35.08 10.29 24.29 13.29 32.73 17.59 35.32 13.1 41.1 9.63 51.9"/>
        <polygon class="cls-13" points="9.7 51.96 6.68 43.51 2.39 40.93 6.89 35.15 10.35 24.35 13.36 32.79 17.66 35.39 13.16 41.17 9.7 51.96"/>
        <polygon class="cls-13" points="9.76 52.03 6.74 43.57 2.46 40.99 6.95 35.21 10.42 24.41 13.42 32.86 17.72 35.45 13.22 41.23 9.76 52.03"/>
        <polygon class="cls-13" points="9.83 52.09 6.81 43.64 2.52 41.06 7.01 35.28 10.48 24.48 13.49 32.92 17.78 35.52 13.29 41.3 9.83 52.09"/>
        <polygon class="cls-13" points="9.89 52.16 6.87 43.7 2.59 41.12 7.08 35.34 10.55 24.54 13.55 32.99 17.85 35.58 13.35 41.36 9.89 52.16"/>
        <polygon class="cls-13" points="9.95 52.22 6.94 43.77 2.65 41.19 7.14 35.41 10.61 24.61 13.62 33.05 17.91 35.64 13.42 41.43 9.95 52.22"/>
        <polygon class="cls-13" points="10.02 52.29 7 43.83 2.72 41.25 7.21 35.47 10.68 24.67 13.68 33.12 17.98 35.71 13.48 41.49 10.02 52.29"/>
        <polygon class="cls-13" points="10.08 52.35 7.07 43.9 2.78 41.31 7.27 35.54 10.74 24.74 13.75 33.18 18.04 35.77 13.55 41.56 10.08 52.35"/>
        <polygon class="cls-13" points="10.15 52.42 7.13 43.96 2.85 41.38 7.34 35.6 10.81 24.8 13.81 33.25 18.11 35.84 13.61 41.62 10.15 52.42"/>
        <polygon class="cls-13" points="10.21 52.48 7.2 44.03 2.91 41.44 7.4 35.67 10.87 24.87 13.88 33.31 18.17 35.9 13.68 41.69 10.21 52.48"/>
        <polygon class="cls-13" points="10.28 52.54 7.26 44.09 2.98 41.51 7.47 35.73 10.94 24.93 13.94 33.38 18.24 35.97 13.74 41.75 10.28 52.54"/>
        <polygon class="cls-13" points="10.34 52.61 7.33 44.16 3.04 41.57 7.53 35.79 11 25 14.01 33.44 18.3 36.03 13.81 41.81 10.34 52.61"/>
        <polygon class="cls-13" points="10.41 52.67 7.39 44.22 3.11 41.64 7.6 35.86 11.06 25.06 14.07 33.51 18.37 36.1 13.87 41.88 10.41 52.67"/>
        <polygon class="cls-13" points="10.47 52.74 7.46 44.29 3.17 41.7 7.66 35.92 11.13 25.13 14.13 33.57 18.43 36.16 13.94 41.94 10.47 52.74"/>
        <polygon class="cls-13" points="10.54 52.8 7.52 44.35 3.23 41.77 7.73 35.99 11.19 25.19 14.2 33.64 18.5 36.23 14 42.01 10.54 52.8"/>
        <polygon class="cls-13" points="10.6 52.87 7.59 44.41 3.3 41.83 7.79 36.05 11.26 25.26 14.26 33.7 18.56 36.29 14.07 42.07 10.6 52.87"/>
      </g>
      <g>
        <g>
          <polygon class="cls-13" points="38.72 72.97 33.74 59 26.65 54.74 34.08 45.18 39.81 27.34 44.77 41.3 51.88 45.58 44.45 55.13 38.72 72.97"/>
          <polygon class="cls-13" points="38.66 72.91 33.67 58.94 26.59 54.67 34.01 45.12 39.74 27.27 44.71 41.23 51.81 45.51 44.38 55.07 38.66 72.91"/>
          <polygon class="cls-13" points="38.59 72.85 33.61 58.87 26.52 54.61 33.95 45.06 39.68 27.21 44.65 41.17 51.75 45.45 44.32 55 38.59 72.85"/>
          <polygon class="cls-13" points="38.53 72.78 33.54 58.81 26.46 54.54 33.88 44.99 39.61 27.14 44.58 41.1 51.68 45.38 44.25 54.94 38.53 72.78"/>
          <polygon class="cls-13" points="38.46 72.72 33.48 58.74 26.39 54.48 33.82 44.93 39.55 27.08 44.52 41.04 51.62 45.32 44.19 54.88 38.46 72.72"/>
          <polygon class="cls-13" points="38.4 72.65 33.41 58.68 26.33 54.41 33.75 44.86 39.48 27.01 44.45 40.97 51.55 45.25 44.12 54.81 38.4 72.65"/>
          <polygon class="cls-13" points="38.33 72.59 33.35 58.62 26.26 54.35 33.69 44.8 39.42 26.95 44.39 40.91 51.49 45.19 44.06 54.75 38.33 72.59"/>
          <polygon class="cls-13" points="38.27 72.52 33.28 58.55 26.2 54.28 33.62 44.73 39.35 26.89 44.32 40.84 51.42 45.13 43.99 54.68 38.27 72.52"/>
          <polygon class="cls-13" points="38.2 72.46 33.22 58.49 26.14 54.22 33.56 44.67 39.29 26.82 44.26 40.78 51.36 45.06 43.93 54.62 38.2 72.46"/>
          <polygon class="cls-13" points="38.14 72.39 33.15 58.42 26.07 54.15 33.49 44.6 39.23 26.76 44.19 40.71 51.29 45 43.86 54.55 38.14 72.39"/>
          <polygon class="cls-13" points="38.07 72.33 33.09 58.36 26.01 54.09 33.43 44.54 39.16 26.69 44.13 40.65 51.23 44.93 43.8 54.49 38.07 72.33"/>
          <polygon class="cls-13" points="38.01 72.26 33.02 58.29 25.94 54.02 33.37 44.47 39.1 26.63 44.06 40.58 51.17 44.87 43.74 54.42 38.01 72.26"/>
          <polygon class="cls-13" points="37.95 72.2 32.96 58.23 25.88 53.96 33.3 44.41 39.03 26.56 44 40.52 51.1 44.8 43.67 54.36 37.95 72.2"/>
          <polygon class="cls-13" points="37.88 72.13 32.9 58.16 25.81 53.89 33.24 44.34 38.97 26.5 43.93 40.45 51.04 44.74 43.61 54.29 37.88 72.13"/>
          <polygon class="cls-13" points="37.82 72.07 32.83 58.1 25.75 53.83 33.17 44.28 38.9 26.43 43.87 40.39 50.97 44.67 43.54 54.23 37.82 72.07"/>
          <polygon class="cls-13" points="37.75 72 32.77 58.03 25.68 53.76 33.11 44.21 38.84 26.37 43.8 40.32 50.91 44.61 43.48 54.16 37.75 72"/>
          <polygon class="cls-13" points="37.69 71.94 32.7 57.97 25.62 53.7 33.04 44.15 38.77 26.3 43.74 40.26 50.84 44.54 43.41 54.1 37.69 71.94"/>
          <polygon class="cls-13" points="37.62 71.88 32.64 57.9 25.55 53.64 32.98 44.08 38.71 26.24 43.68 40.2 50.78 44.48 43.35 54.03 37.62 71.88"/>
          <polygon class="cls-13" points="37.56 71.81 32.57 57.84 25.49 53.57 32.91 44.02 38.64 26.17 43.61 40.13 50.71 44.41 43.28 53.97 37.56 71.81"/>
          <polygon class="cls-13" points="37.49 71.75 32.51 57.77 25.42 53.51 32.85 43.96 38.58 26.11 43.55 40.07 50.65 44.35 43.22 53.9 37.49 71.75"/>
          <polygon class="cls-13" points="37.43 71.68 32.44 57.71 25.36 53.44 32.78 43.89 38.51 26.04 43.48 40 50.58 44.28 43.15 53.84 37.43 71.68"/>
          <polygon class="cls-13" points="37.36 71.62 32.38 57.65 25.29 53.38 32.72 43.83 38.45 25.98 43.42 39.94 50.52 44.22 43.09 53.78 37.36 71.62"/>
          <polygon class="cls-13" points="37.3 71.55 32.31 57.58 25.23 53.31 32.65 43.76 38.38 25.92 43.35 39.87 50.45 44.15 43.02 53.71 37.3 71.55"/>
          <polygon class="cls-13" points="37.23 71.49 32.25 57.52 25.16 53.25 32.59 43.7 38.32 25.85 43.29 39.81 50.39 44.09 42.96 53.65 37.23 71.49"/>
          <polygon class="cls-13" points="37.17 71.42 32.18 57.45 25.1 53.18 32.52 43.63 38.26 25.79 43.22 39.74 50.32 44.03 42.89 53.58 37.17 71.42"/>
          <polygon class="cls-13" points="37.1 71.36 32.12 57.39 25.04 53.12 32.46 43.57 38.19 25.72 43.16 39.68 50.26 43.96 42.83 53.52 37.1 71.36"/>
          <polygon class="cls-13" points="37.04 71.29 32.05 57.32 24.97 53.05 32.4 43.5 38.13 25.66 43.09 39.61 50.19 43.9 42.77 53.45 37.04 71.29"/>
          <polygon class="cls-13" points="36.98 71.23 31.99 57.26 24.91 52.99 32.33 43.44 38.06 25.59 43.03 39.55 50.13 43.83 42.7 53.39 36.98 71.23"/>
          <polygon class="cls-13" points="36.91 71.16 31.93 57.19 24.84 52.92 32.27 43.37 38 25.53 42.96 39.48 50.07 43.77 42.64 53.32 36.91 71.16"/>
          <polygon class="cls-13" points="36.85 71.1 31.86 57.13 24.78 52.86 32.2 43.31 37.93 25.46 42.9 39.42 50 43.7 42.57 53.26 36.85 71.1"/>
          <polygon class="cls-13" points="36.78 71.03 31.8 57.06 24.71 52.79 32.14 43.24 37.87 25.4 42.83 39.35 49.94 43.64 42.51 53.19 36.78 71.03"/>
          <polygon class="cls-13" points="36.72 70.97 31.73 57 24.65 52.73 32.07 43.18 37.8 25.33 42.77 39.29 49.87 43.57 42.44 53.13 36.72 70.97"/>
          <polygon class="cls-13" points="36.65 70.9 31.67 56.93 24.58 52.67 32.01 43.11 37.74 25.27 42.7 39.23 49.81 43.51 42.38 53.06 36.65 70.9"/>
          <polygon class="cls-13" points="36.59 70.84 31.6 56.87 24.52 52.6 31.94 43.05 37.67 25.2 42.64 39.16 49.74 43.44 42.31 53 36.59 70.84"/>
          <polygon class="cls-13" points="36.52 70.78 31.54 56.8 24.45 52.54 31.88 42.99 37.61 25.14 42.58 39.1 49.68 43.38 42.25 52.93 36.52 70.78"/>
          <polygon class="cls-13" points="36.46 70.71 31.47 56.74 24.39 52.47 31.81 42.92 37.54 25.07 42.51 39.03 49.61 43.31 42.18 52.87 36.46 70.71"/>
          <polygon class="cls-13" points="36.39 70.65 31.41 56.67 24.32 52.41 31.75 42.86 37.48 25.01 42.45 38.97 49.55 43.25 42.12 52.81 36.39 70.65"/>
          <polygon class="cls-13" points="36.33 70.58 31.34 56.61 24.26 52.34 31.68 42.79 37.41 24.94 42.38 38.9 49.48 43.18 42.05 52.74 36.33 70.58"/>
          <polygon class="cls-13" points="36.26 70.52 31.28 56.55 24.19 52.28 31.62 42.73 37.35 24.88 42.32 38.84 49.42 43.12 41.99 52.68 36.26 70.52"/>
          <polygon class="cls-13" points="36.2 70.45 31.21 56.48 24.13 52.21 31.55 42.66 37.28 24.82 42.25 38.77 49.35 43.06 41.92 52.61 36.2 70.45"/>
          <polygon class="cls-13" points="36.13 70.39 31.15 56.42 24.07 52.15 31.49 42.6 37.22 24.75 42.19 38.71 49.29 42.99 41.86 52.55 36.13 70.39"/>
          <polygon class="cls-13" points="36.07 70.32 31.08 56.35 24 52.08 31.42 42.53 37.16 24.69 42.12 38.64 49.22 42.93 41.79 52.48 36.07 70.32"/>
          <polygon class="cls-13" points="36 70.26 31.02 56.29 23.94 52.02 31.36 42.47 37.09 24.62 42.06 38.58 49.16 42.86 41.73 52.42 36 70.26"/>
          <polygon class="cls-13" points="35.94 70.19 30.95 56.22 23.87 51.95 31.3 42.4 37.03 24.56 41.99 38.51 49.1 42.8 41.67 52.35 35.94 70.19"/>
          <polygon class="cls-13" points="35.88 70.13 30.89 56.16 23.81 51.89 31.23 42.34 36.96 24.49 41.93 38.45 49.03 42.73 41.6 52.29 35.88 70.13"/>
          <polygon class="cls-13" points="35.81 70.06 30.83 56.09 23.74 51.82 31.17 42.27 36.9 24.43 41.86 38.38 48.97 42.67 41.54 52.22 35.81 70.06"/>
          <polygon class="cls-13" points="35.75 70 30.76 56.03 23.68 51.76 31.1 42.21 36.83 24.36 41.8 38.32 48.9 42.6 41.47 52.16 35.75 70"/>
          <polygon class="cls-13" points="35.68 69.93 30.7 55.96 23.61 51.69 31.04 42.14 36.77 24.3 41.73 38.25 48.84 42.54 41.41 52.09 35.68 69.93"/>
          <polygon class="cls-13" points="35.62 69.87 30.63 55.9 23.55 51.63 30.97 42.08 36.7 24.23 41.67 38.19 48.77 42.47 41.34 52.03 35.62 69.87"/>
          <polygon class="cls-13" points="35.55 69.81 30.57 55.83 23.48 51.57 30.91 42.01 36.64 24.17 41.6 38.13 48.71 42.41 41.28 51.96 35.55 69.81"/>
          <polygon class="cls-13" points="35.49 69.74 30.5 55.77 23.42 51.5 30.84 41.95 36.57 24.1 41.54 38.06 48.64 42.34 41.21 51.9 35.49 69.74"/>
          <polygon class="cls-13" points="35.42 69.68 30.44 55.7 23.35 51.44 30.78 41.89 36.51 24.04 41.48 38 48.58 42.28 41.15 51.83 35.42 69.68"/>
        </g>
        <polygon class="cls-12" points="38.72 72.97 33.74 59 26.65 54.74 34.08 45.18 39.81 27.34 44.77 41.3 51.88 45.58 44.45 55.13 38.72 72.97"/>
        <polygon class="cls-12" points="10.6 52.87 7.59 44.41 3.3 41.83 7.79 36.05 11.26 25.26 14.26 33.7 18.56 36.29 14.07 42.07 10.6 52.87"/>
      </g>
    </g>
  </g>
</svg>