<?xml version="1.0" encoding="UTF-8"?>
<svg id="Layer_2" data-name="Layer 2" xmlns="http://www.w3.org/2000/svg" viewBox="0 0 160 230.97">
  <defs>
    <style>
      .cls-1 {
        fill: #f9c3c0;
      }

      .cls-2 {
        fill: #f58a8e;
      }

      .cls-3 {
        fill: #f2f6f6;
      }

      .cls-4 {
        fill: #dee9e9;
      }

      .cls-5 {
        fill: #004c7e;
      }

      .cls-6 {
        fill: #fff;
      }

      .cls-7 {
        fill: #bfd4d5;
      }

      .cls-8 {
        fill: #316ea9;
      }

      .cls-9 {
        fill: #b5bdc0;
      }

      .cls-10 {
        fill: #5d6f76;
      }

      .cls-11 {
        fill: #cedee0;
      }

      .cls-12 {
        fill: #2a424b;
      }
    </style>
  </defs>
  <g id="_レイアウト" data-name="レイアウト">
    <g>
      <path class="cls-4" d="M122.65,34.08s5.79-2.52,11.89,0c1.66,1.86,0,2.24,0,2.24l-13.06-.2s.37-1.71,1.17-2.03Z"/>
      <path class="cls-8" d="M147.63,107.14l-1.39-19.59,4.27-38.78c.56-3.35-.78-6.74-4.43-8.39-8.38-3.8-18.2-8.51-34.03-2.29-2.17.85-2.98,3.47-3.73,5.67-.9,2.63-1.34,5.48-1.23,8.27,0,0,.17,4.81.17,4.81.08,9.17.16,18.33.23,27.5.05,5.81.34,11.54.75,17.33.18,2.55.05,6.49.05,6.49,0,0,4.77,4.25,18.89,4.17,15.38-.08,20.44-5.18,20.44-5.18Z"/>
      <path class="cls-1" d="M128.65,43.9c4.29,0,7.77-2.81,7.77-6.27,0-.39-.05-.78-.14-1.15-4.29-1.25-9.15-1.89-14.94-.98-.3.67-.47,1.39-.47,2.14,0,3.46,3.48,6.27,7.77,6.27Z"/>
      <path class="cls-1" d="M128.9,27c2.77,0,4.24,1.56,4.24,2.91l1.4,9.04c-.13,1.56-2.79,2.83-5.94,2.83s-5.61-1.27-5.48-2.83l1.36-9.45c.11-1.37,1.65-2.5,4.42-2.5Z"/>
      <path class="cls-1" d="M82.41,50.64l-2.67-3.52-3.36-2.37c-1.32-1.23-3.07-3.26-4-4.82-1-1.69-1.76-2.94-1.99-3.36-.34-.63-.61-1.4-.14-1.63.36-.18.99.45.99.45,0,0-1.47-1.91-1.65-2.21-.18-.3-.44-.91-.04-1.18s1.12.18,1.12.18c-.6-.79-.54-1.29-.23-1.56.4-.34,1.5.36,1.5.36,0,0,.19-.97,1.75.18,1.4,1.04,4.46,5.31,4.46,5.31.85.64,1.66,1.28,2.47,1.36.49.05,1.02-.29,1.21-.75.12-.28.07-1.38.13-1.68.16-.81,1.02-3.49,2.28-3.04.07.02.14.06.18.12.05.07.05.16.05.24,0,.55-.1,1.13-.18,1.67-.18,1.15-.3,2.31-.46,3.47,0,.03,0,.06-.01.09-.15.91,0,1.83.39,2.68.91,2.03.46,4.59.46,4.59l5.99,7.8-5.92,3.35-2.34-5.74Z"/>
      <path class="cls-4" d="M80.01,52.06l8.49-6.01,14.05,17.74s7.28,8.92,1.24,15.31c-6.18,6.54-11.34-6.86-13.5-10.75-4.58-8.24-10.29-16.29-10.29-16.29Z"/>
      <path class="cls-4" d="M99.81,80.88c-3.1-.27-4.7-6.25-3.99-9.28,1.4-5.92,4.66-15.79,6.28-22.71,2.1-8.95,4.5-10.68,11.82-11.61,3.28,6.22-3.55,27.32-6.71,37.43-.97,3.11-5.33,6.35-7.41,6.16Z"/>
      <path class="cls-7" d="M105.57,77.42c-.24-11.03,1.27-15.46,1.39-26.44l.75,23.55-2.14,2.9Z"/>
      <path class="cls-1" d="M152.99,114.1s-.72,1.97-.97,2.8c-.28.92-.49,1.85-.64,2.79-.27,1.72-.32,3.47-.15,5.2.01.1.02.21.03.31.17,1.5.61,2.95.95,4.41.09.37.07.98.54,1.16.02,0,.45.1.44.04,0,.02.22.86.69.94.37.07.75-.09.9-.72,0,0,.14.56.57.67.43.11.68-.26.77-.47.09-.21.46-1.73.46-1.73,0,0-.03.58.31.71,1.78.67,1.5-4.16,1.36-4.89-.09-.46-.22-.91-.21-1.37.01-.65.3-1.28.52-1.9.5-1.39.71-2.85.64-4.3-.06-1.38-.9-2.37-.84-3.73l.54-5.29-5.5-.44-.42,5.81Z"/>
      <path class="cls-5" d="M148.14,211.78c.19.16.36.41.57.79,1.24,2.21,1.74,4.13,1.62,6.65-.04.78-.08,1.58-.35,2.32-.47,1.25-1.57,2.18-2.79,2.72-1.23.55-2.5.58-3.76.94-.82.23-1.27.96-1.96,1.47-.96.7-1.97,1.33-3.04,1.85-2.76,1.36-6,2.23-9.08,2.2-1.13-.01-2.29-.22-3.22-.85-.93-.63-1.59-1.75-1.44-2.87.21-1.49,1.67-2.42,2.97-3.18,2.67-1.57,4.97-3.36,7.25-5.43,2-1.81,3.38-4.51,4.45-6.98,2.45-.24,4.93-.21,7.37,0,.71.06,1.08.09,1.4.37Z"/>
      <path class="cls-5" d="M125.89,199.14c.17.18.32.44.49.84,1.01,2.32,1.32,4.28.96,6.78-.11.78-.23,1.57-.58,2.27-.59,1.2-1.78,2.01-3.04,2.44-1.27.43-2.55.33-3.84.56-.84.15-1.36.83-2.09,1.27-1.02.6-2.09,1.13-3.21,1.55-2.88,1.08-6.19,1.63-9.25,1.29-1.12-.12-2.26-.44-3.12-1.16s-1.41-1.9-1.15-2.99c.36-1.46,1.9-2.24,3.27-2.87,2.81-1.3,5.28-2.85,7.75-4.69,2.16-1.61,3.81-4.16,5.12-6.51,2.46,0,4.92.28,7.34.73.7.13,1.06.2,1.35.51Z"/>
      <path class="cls-1" d="M130.04,4.96c7.88.06,10.05,5.98,10.05,13.16,0,9.35-6.15,12.23-9.31,13.15-3.85,1.12-8.63,2.12-11.56-5.25-1.74-4.38-1.68-12-.71-14.95.84-2.57,3.65-6.16,11.53-6.1Z"/>
      <path class="cls-12" d="M123.42,12.2c0,.52,0,1.05,0,1.57.3-.54.46-1.14.7-1.71.24-.57.57-1.14,1.11-1.44-.04.54-.09,1.07-.13,1.61.79-.48,1.48-1.13,1.99-1.89.24-.36.45-.74.75-1.05.27-.27.54.55.66.76.23.39.48.77.76,1.13.57.74,1.23,1.42,1.96,2,0-.51-.01-1.01-.02-1.52,0,.26.44.79.56,1.04.19.41.36.83.53,1.25.31.8.72,1.53.95,2.36.18-.51.35-1.03.51-1.55.61,1.51,1.23,3.07,1.22,4.69,0,.63.48,1.29.62,1.94.04.19.07.38.18.54.15.25.47.25.68.44,1.07.91,1.55,2.28,1.63,3.65,1.51-1.19,3.83-2.67,4.07-4.75.08-.72.04-1.47.27-2.16.14-.43.38-.81.54-1.24.2-.53.26-1.11.33-1.68.15-1.41-.46-2.61-.32-4.01.01-.1.04-.23.13-.26.12-.05.24.08.34.17.22.2.58.23.83.08-1.01-1.13-1.64-2.55-2.24-3.94-.3-.69-.57-1.28-1.03-1.87-.69-.88-1.61-1.72-2.73-1.73-.16,0-.32.02-.48-.03-.15-.05-.27-.15-.39-.25-1.63-1.35-3.37-3.36-5.54-3.75-1-.18-2.09-.09-2.97-.6-.07.51.02,1.04.24,1.51.06.13.1.21,0,.32-.95-.24-1.78-.6-2.79-.46-1.14.16-2.11.81-2.99,1.52-.85.69-1.79,1.09-2.58,1.88-.98.99-1.76,2.15-2.44,3.37-.54.96-1.26,1.98-1.69,2.98-.44,1.03-.18,2.53.01,3.6.12.65.29,1.29.54,1.89.17.39.42.86.65,1.22.33-.52.3-.93.42-1.48.12-.53.69-.96,1.11-1.26.5-.35.86-.9,1.39-1.19-.12.24-.26.47-.39.7,1.2-.53,2.26-1.36,3.06-2.4Z"/>
      <path class="cls-1" d="M135.11,21.7s.14-2.67,2.43-2.32c1.96.3,1.91,1.57,1.35,3.79-.57,2.22-1.93,3.28-3.3,3.22-1.38-.06-.47-4.69-.47-4.69Z"/>
      <path class="cls-7" d="M147.03,165.52l1.46-47.37-.86-11s-5.12,4.67-20.44,5.18c-12.6.42-18.89-4.17-18.89-4.17l3.63,47.27,3.25,45.29s1.81,1.43,5.56,1.34c4.25-.1,6.25-2.08,6.25-2.08l-1.44-39.92,2.19-42.52,5.63,43.82,4.51,50.09s2.16,1.91,5.68,1.92c3.55.01,5.8-1.84,5.8-1.84l-2.33-46Z"/>
      <path class="cls-4" d="M117.2,98.68c-.2-16.58-1.5-39.23,3.03-61.92.05-.25.1-.49.16-.75.02-.12.03-.37.03-.49-.09.02-.18.03-.27.05-2.52.48-5.21,1.3-8.1,2.43-2.17.85-3.25,3.57-4,5.77-.9,2.63-1.47,5.53-1.36,8.32,0,0,.19,4.84.19,4.84.08,9.16.28,18.39.36,27.55.05,5.81-.53,11.44-.12,17.23.18,2.55,1.17,49.83,1.17,49.83,0,0-1.83,2.09,10.75,2.4,0,0-1.69-42.1-1.85-55.27Z"/>
      <path class="cls-4" d="M136.65,36.42c3.26,1.03,6.66,2.69,9.44,3.95,3.65,1.65,4.99,5.05,4.43,8.39l-2.48,22.54-.25,16.32.82,19.51c.53,6.37,3.67,43.08,3.67,43.28-4.09,3.27-9.86,4.07-14.17,4.72-2.11.27-5.56.46-8.3.46-2.03,0-.76-32.05-1.16-61.81-.47-34.78,7.09-57.68,7.09-57.68l.92.31Z"/>
      <path class="cls-7" d="M148.01,73.8s-1.48-5.79-3.54-14.01c1.24,11.81,2.3,15.54,3.44,19.52l.1-5.51Z"/>
      <path class="cls-3" d="M134.54,36.32c-.63,12.42-7.84,28.41-5.84,49.39,4.2-19.59,10.52-37.2,10.52-37.2l-2.81-4.61,3.47-3.84-5.35-5.98v2.24Z"/>
      <path class="cls-3" d="M116.94,84.91c.82-5.15,1.58-45.75,5.71-50.83-2,.58-6.3,2.98-6.3,2.98l.85,4.02-3.65,4.77s.25,23.71,3.39,39.06Z"/>
      <path class="cls-4" d="M146.36,40.51c8.06,3.83,9.33,4.62,10.43,13.18l3.21,32.02v26.82h-9.36l-1.1-28.29-4.1-21.09c-5.54-17.34.93-22.64.93-22.64Z"/>
    </g>
    <g>
      <path class="cls-10" d="M19.61,81.56l1.13-.38c-1.36-4.09-5.5-16.56-1.55-22.85,1.37-2.19,3.65-3.51,6.78-3.92,12.27-1.59,15.06,15.98,15.09,16.16l1.18-.18c-.03-.19-3-18.93-16.42-17.16-3.49.46-6.06,1.96-7.63,4.46-3.81,6.07-1.01,16.52,1.43,23.86Z"/>
      <path class="cls-5" d="M13.11,216.5c-.14.12-.27.31-.44.6-.94,1.69-1.33,3.16-1.24,5.08.03.6.06,1.21.27,1.77.36.95,1.2,1.66,2.13,2.08.94.42,1.91.44,2.88.72.63.18.97.74,1.5,1.12.73.54,1.51,1.02,2.32,1.42,2.11,1.04,4.59,1.71,6.94,1.68.86,0,1.75-.17,2.46-.65.71-.48,1.22-1.34,1.1-2.19-.16-1.14-1.28-1.85-2.27-2.43-2.04-1.2-3.8-2.57-5.54-4.15-1.53-1.39-2.59-3.45-3.4-5.34-1.87-.18-3.76-.16-5.64,0-.54.05-.82.07-1.07.28Z"/>
      <path class="cls-5" d="M29.47,208.42c-.12.14-.22.35-.33.66-.65,1.82-.79,3.33-.39,5.22.13.59.26,1.18.56,1.7.51.88,1.46,1.44,2.44,1.7.99.26,1.96.12,2.95.23.65.07,1.08.57,1.66.86.81.41,1.65.75,2.52,1.02,2.25.68,4.81.93,7.12.52.85-.15,1.7-.45,2.32-1.04.63-.59.98-1.52.72-2.34-.35-1.1-1.57-1.61-2.64-2.02-2.21-.85-4.17-1.91-6.15-3.19-1.73-1.12-3.12-2.98-4.23-4.7-1.88.13-3.74.46-5.56.93-.53.14-.8.2-1.01.45Z"/>
      <path class="cls-7" d="M42.55,109.26s-1.42,50.83-2.13,55.34c-.71,4.51-.97,39.05-1.21,45.39-3.11,1.23-8.87,1.56-12.27.22-.25-13.49-2.28-32.7-1.18-45.81-.32-3.77-.29-24.03.08-31.44.12-8.65.54-17.71.54-17.71l5.9-6.31,10.28.3Z"/>
      <path class="cls-4" d="M29.66,111.64s-4.06,53.13-4.87,58.15c-.81,5.02-1.66,40.5-2.17,47.57-3.87.91-8.6,1.16-12,.08-.4-11.05-3.61-35.98-.87-50.1-.69-11.96-2.73-40.89-2.88-47.64-.13-3.99,2.86-11.23,2.86-11.23l19.91,3.17Z"/>
      <path class="cls-1" d="M44.06,62.98c-1.24-2.53-4.75-2.92-6.48-.7-1.7,2.19-2.47,4.84-1.54,10.28l4.64,26.15,13.51,6.73,3.25-4-9.83-6.55s-1.38-19.23-1.51-22.55c-.17-4.35-1.05-7.33-2.04-9.35Z"/>
      <path class="cls-11" d="M36.29,58.05s2.87.55,4.26,1.14c2.14.91,4.16,1.86,5.85,8.49,1.69,6.63,3.1,14.76,3.1,14.76l-13.97,3.58s-3.25-18.34-2.68-22.01c.56-3.67,3.44-5.96,3.44-5.96Z"/>
      <path class="cls-12" d="M38.24,48.12c.22.26.49.48.8.63-1.32,1.14-3.39,1.31-4.88.4.03-.49.32-.91.59-1.31.74-1.05,1.66-3.09,2.73-3.73.21.51.09,1.11.11,1.66.02.94.24,1.52.66,2.35Z"/>
      <path class="cls-4" d="M5.95,120.23l4.74-23.51-1.17-29.73c-.47-2.79.65-5.62,3.69-7,6.99-3.17,13.47-6.16,26.68-.98,1.81.71,1.76,8.25,1.68,10.58,0,0,2.12,7.3,1.92,9.32-.58,5.7-.49,10.59-1.3,18.19.81,9.15.89,23.67.89,23.67,0,0-2.48,1.89-14.26,1.83-12.83-.07-22.86-2.38-22.86-2.38Z"/>
      <path class="cls-1" d="M27.33,47.71c-2.51-.14-3.92,1.2-3.99,2.42l-1.72,8.13c.04,1.43,2.39,2.71,5.25,2.87,2.86.16,5.15-.87,5.11-2.3l-.76-8.64c-.03-1.25-1.37-2.35-3.88-2.48Z"/>
      <path class="cls-1" d="M29.07,25.97c-7.57-.89-10.37,4.53-11.24,11.42,1.08,8.31,4.43,12.48,7.35,13.74,3.56,1.54,8.03,3.08,11.73-3.64,2.2-4,3.06-11.32,2.49-14.27-.5-2.57-2.76-6.36-10.33-7.25Z"/>
      <path class="cls-12" d="M35.25,32.73c.07.04-2.54,2.34-2.7,2.45-2.62,1.87-5.5,2.69-8.59,3.45-.65.16-1.31.32-1.89.66-2.1,1.22-1.85,3.12-1.34,5.24.15.63,1.85,5.63,2.72,5.39-1.86.51-3.86,1.02-5.69.41,1.21-3.59-1.25-6-2.32-9.16-.72-2.11-.23-4.9-.15-7.13.14-3.92,2.11-7.33,5.95-8.63,0,0,5.42-5.82,15.7.95,3.39,2.23,6.15,7.09,2.39,12.55,0,0-.48-4.05-4.08-6.17Z"/>
      <path class="cls-1" d="M21.82,41.97s.19-2.58-2.05-2.52c-1.92.05-2.44,1.31-2.16,3.51.28,2.2,1.87,3.35,3.2,3.46,1.33.11,1.02-4.45,1.02-4.45Z"/>
      <g>
        <g>
          <path class="cls-10" d="M18.04,83.22c0,1.49,1.21,2.71,2.71,2.71,1.49,0,2.71-1.21,2.71-2.71s-1.21-2.71-2.71-2.71c-1.49,0-2.71,1.21-2.71,2.71Z"/>
          <path class="cls-6" d="M18.9,83.22c0,1.02.83,1.84,1.84,1.84,1.02,0,1.84-.83,1.84-1.84s-.83-1.84-1.84-1.84c-1.02,0-1.84.83-1.84,1.84Z"/>
        </g>
        <g>
          <path class="cls-10" d="M45.54,80.53l1.19-.04c-.01-.33-.34-8.18-4.81-10.53l-.55,1.05c3.86,2.03,4.17,9.44,4.17,9.51Z"/>
          <path class="cls-10" d="M38.13,81.56l1.18-.17c-.01-.08-1.18-8.37,2.61-10.36l-.55-1.05c-4.54,2.38-3.29,11.22-3.24,11.59Z"/>
          <path class="cls-9" d="M41.35,92.28c.22-.03,5.38-.84,5.38-11.77h-1.19c0,9.79-4.31,10.58-4.36,10.59l.16,1.18Z"/>
          <path class="cls-9" d="M45.35,92.29h.02l-.02-1.19s-4.11-.14-6.04-9.74l-1.17.23c2.11,10.48,6.82,10.7,7.21,10.7Z"/>
          <path class="cls-9" d="M38.77,91.66c0,.8.65,1.45,1.45,1.45s1.45-.65,1.45-1.45-.65-1.45-1.45-1.45-1.45.65-1.45,1.45Z"/>
          <path class="cls-9" d="M44.98,91.23c0,.8.65,1.45,1.45,1.45s1.45-.65,1.45-1.45-.65-1.45-1.45-1.45-1.45.65-1.45,1.45Z"/>
        </g>
        <path class="cls-10" d="M19.61,81.56l1.13-.38c-4.64-13.98-4.27-22.31,1.15-25.46l-.6-1.03c-8.88,5.18-3.46,21.5-1.68,26.87Z"/>
        <path class="cls-10" d="M41.06,70.58l1.18-.18c-.08-.52-2.01-12.84-10.16-16.36l-.47,1.09c7.54,3.26,9.43,15.33,9.45,15.45Z"/>
      </g>
      <path class="cls-1" d="M30.93,67.98s-9.31-3.32-10.45-9.55c0-.47.08-.92.23-1.36,3.49-.95,7.43-1.26,12.52-.13.18.47.27.97.27,1.49.65,5.49-2.58,9.55-2.58,9.55Z"/>
      <polygon class="cls-2" points="40.24 114.43 16.49 120.23 16.49 88.46 40.24 82.65 40.24 114.43"/>
      <path class="cls-1" d="M59.76,107.87l3.14,1.78,2.29,2.46c1.14.94,2.98,2.13,4.34,2.71,1.48.63,2.57,1.11,2.94,1.25.55.21,1.2.34,1.34-.07.1-.31-.47-.75-.47-.75,0,0,1.71.98,1.97,1.09s.78.26.96-.1c.18-.36-.27-.88-.27-.88.7.4,1.1.3,1.28.01.23-.36-.45-1.17-.45-1.17,0,0,.77-.26-.34-1.4-.99-1.02-4.78-3.03-4.78-3.03-.61-.62-1.22-1.2-1.37-1.85-.09-.39.12-.85.47-1.06.22-.13,1.11-.21,1.35-.29.64-.21,2.72-1.2,2.21-2.18-.03-.05-.06-.11-.12-.13-.06-.03-.13-.02-.2-.01-.45.06-.9.2-1.33.33-.91.27-1.84.5-2.76.75-.02,0-.04.01-.07.02-.72.22-1.49.19-2.21-.02-1.74-.52-3.76.12-3.76.12l-6.45-4-3.25,4,5.57,2.43Z"/>
      <path class="cls-1" d="M4.25,72.03c.15-5.53,1.42-7.97,3.51-9.79,2.13-1.84,5.49-.77,6.22,1.95.58,2.18.85,5.27.18,9.57-.52,3.28-2.91,22.41-2.91,22.41l17.12,7.08c1.83-.07,3.65-.25,5.33-1.09,1.29-.65,2.55-1.33,3.81-2,1.13-.6,2.26-1.19,3.44-1.75.36-.17.73-.34,1.13-.31.39.03.8.35.77.74-.02.32-.3.56-.56.75-.51.39-1.03.79-1.54,1.18.32.2.42.65.33,1.01-.1.37-.35.67-.62.94.32.2.39.65.31,1.01-.21.9.12,1.17.04,1.99-.06.65-.83.92-1.38,1.27-.34.22-.63.51-.99.69-.45.22-.96.23-1.46.24-2.47.05-4.37.52-7.06.54l-26.2-7.04.54-29.41Z"/>
      <path class="cls-4" d="M13.21,60s-2.87.55-4.26,1.14c-2.14.91-4.16,1.86-5.85,8.49-1.69,6.63-3.1,14.76-3.1,14.76l13.97,3.58s1.65-17.48,1.09-21.15c-.56-3.67-1.85-6.82-1.85-6.82Z"/>
    </g>
  </g>
</svg>