<?xml version="1.0" encoding="UTF-8"?>
<svg id="Layer_2" data-name="Layer 2" xmlns="http://www.w3.org/2000/svg" xmlns:xlink="http://www.w3.org/1999/xlink" viewBox="0 0 75.84 161.54">
  <defs>
    <style>
      .cls-1 {
        fill: #f9c3c5;
      }

      .cls-2 {
        fill: #9e7f64;
      }

      .cls-3 {
        fill: #f9c3c0;
      }

      .cls-4 {
        fill: #f58a8e;
      }

      .cls-5 {
        fill: #dee9e9;
      }

      .cls-6 {
        fill: #ecf2f2;
      }

      .cls-7 {
        fill: #7b502c;
      }

      .cls-8 {
        fill: none;
      }

      .cls-9 {
        fill: #fee4ce;
      }

      .cls-10 {
        clip-path: url(#clippath-1);
      }

      .cls-11 {
        fill: #bfd4d5;
      }

      .cls-12 {
        fill: #f0ad2c;
      }

      .cls-13 {
        fill: #ed9d03;
      }

      .cls-14 {
        clip-path: url(#clippath);
      }
    </style>
    <clipPath id="clippath">
      <path id="SVGID" class="cls-8" d="M18.71,42.36c-6.29,3.63-11.38,12.44-11.36,19.67.02,7.23,5.14,10.15,11.43,6.52,6.29-3.63,11.38-12.44,11.36-19.67-.02-7.23-5.14-10.15-11.43-6.52Z"/>
    </clipPath>
    <clipPath id="clippath-1">
      <polygon id="SVGID-3" data-name="SVGID" class="cls-4" points="5.02 50.01 30.63 35.41 30.52 63.86 4.91 78.46 5.02 50.01"/>
    </clipPath>
  </defs>
  <g id="layout">
    <g>
      <path class="cls-5" d="M72.32,1.68l-2.35-1.36c.78-.45,1.65-.4,2.34,0l2.36,1.36c-.68-.39-1.56-.45-2.34,0Z"/>
      <path class="cls-6" d="M4.56,40.8L72.32,1.68c1.56-.9,3.52.23,3.52,2.03v114.58c0,1.57-.84,3.03-2.2,3.81L5.88,161.22c-1.56.9-3.52-.23-3.52-2.03V44.61c0-1.57.84-3.03,2.2-3.81Z"/>
      <path class="cls-11" d="M2.36,159.19c0,.91.5,1.65,1.19,2.04l-2.35-1.37c-.69-.39-1.18-1.13-1.18-2.04l2.35,1.37"/>
      <polygon class="cls-11" points="2.36 44.61 0 43.3 0 157.83 2.36 159.19 2.36 44.61"/>
      <path class="cls-5" d="M2.36,44.61l-2.36-1.32c0-1.57.84-3.07,2.21-3.85l2.35,1.36c-1.36.74-2.2,2.24-2.2,3.81Z"/>
      <polygon class="cls-5" points="2.21 39.44 4.56 40.8 72.32 1.68 69.97 .32 2.21 39.44"/>
      <polygon class="cls-11" points="8.35 84.5 70.53 48.7 70.53 52.39 8.35 88.19 8.35 84.5"/>
      <polygon class="cls-11" points="7.92 93.51 70.1 57.72 70.1 61.41 7.92 97.21 7.92 93.51"/>
      <polygon class="cls-11" points="8.35 127.57 70.53 91.77 70.53 95.47 8.35 131.26 8.35 127.57"/>
      <polygon class="cls-11" points="7.92 136.59 70.1 100.79 70.1 104.48 7.92 140.28 7.92 136.59"/>
      <polygon class="cls-11" points="7.92 145.6 70.1 109.81 70.1 113.5 7.92 149.3 7.92 145.6"/>
      <polygon class="cls-11" points="33.83 34.97 70.53 13.78 70.53 17.47 33.83 38.67 33.83 34.97"/>
      <polygon class="cls-11" points="33.83 47.89 70.53 26.7 70.53 30.39 33.83 51.59 33.83 47.89"/>
      <polygon class="cls-11" points="33.83 55.54 70.53 34.35 70.53 38.04 33.83 59.23 33.83 55.54"/>
      <polygon class="cls-11" points="33.83 87.23 70.53 66.03 70.53 69.73 33.83 90.92 33.83 87.23"/>
      <polygon class="cls-11" points="33.83 95.7 70.53 74.51 70.53 78.2 33.83 99.39 33.83 95.7"/>
      <polygon class="cls-11" points="33.83 104.17 70.53 82.98 70.53 86.67 33.83 107.86 33.83 104.17"/>
      <polygon class="cls-11" points="8.35 101.82 29.8 89.44 29.8 109.81 8.35 122.2 8.35 101.82"/>
      <g class="cls-14">
        <g>
          <polygon id="SVGID-2" data-name="SVGID" class="cls-4" points="5.02 50.01 30.63 35.41 30.52 63.86 4.91 78.46 5.02 50.01"/>
          <g class="cls-10">
            <polygon class="cls-3" points="26.65 64.62 27.1 67.87 24.56 69.2 24.28 66.36 26.65 64.62"/>
            <polygon class="cls-3" points="9.95 72.56 9.47 76.25 12.01 75.16 12.31 72.05 9.95 72.56"/>
            <path class="cls-2" d="M22.02,53.22c-.2.64-.05,1.19.22,1.57s.64.65.91,1.03c.69.96.65,2.64-.03,4.26-.31.74-.87,1.58-1.52,1.79-.84.27-1.5.66-2.02.2-.51-.46-.63-1.39-.3-2.36.09-.27.22-.55.26-.81.11-.64-.25-1.03-.42-1.52-.25-.73-.05-1.81.52-2.76.57-.94,1.48-1.71,2.33-1.96.08.18.13.31.05.56Z"/>
            <path class="cls-3" d="M15.88,62.36c0,1.27,1.93,1.37,2.5,1.1.57-.27,2.52-2.22,2.52-3.49s.57-2.07-2.51-.61-2.51,1.74-2.52,3Z"/>
            <polygon class="cls-9" points="22.04 59.29 18.58 62.91 14.99 62.51 18.29 71.25 22.04 59.29"/>
            <path class="cls-1" d="M9.8,68.64c.46-1.08.93-2.17,1.57-3.15,1.55-2.36,3.8-3.67,5.61-5.72,0,0-1.18,4.26,1.39,10.32,1.18-3.87,1.6-6.63,1.7-8.5.12-2.24-.21-3.19-.21-3.19,1.8.33,4.05-.5,5.59.4.64.37,1.1,1.02,1.55,1.66.42.59.84,1.19,1.26,1.78-.13.81-.33,1.74-.9,2.37-.36.39-.79.56-1.18.88-.91.74-.68,1.8-1.71,1.89-.17.69-.25,1.37-.26,2.01-1.83.95-3.98,2.06-5.54,2.88v.03c-.1.04-.2.09-.3.13-.1.05-.21.11-.31.16v-.03c-1.56.66-3.7,1.6-5.53,2.38,0-.64-.08-1.23-.24-1.77-1.03.9-.79-.4-1.7-.27-.39.06-.82.29-1.18.24-.57-.08-.76-.83-.89-1.52.43-1,.85-1.99,1.28-2.99Z"/>
            <path class="cls-3" d="M18.38,54.91c-.77.36-1.17,1.18-1.18,1.72l-.4,3.8c.03.61.77.77,1.64.35.87-.41,1.55-1.24,1.52-1.85l-.36-3.6c-.03-.53-.45-.78-1.22-.42Z"/>
            <path class="cls-3" d="M18.15,46.2c-2.65,1.28-3.39,4.17-3.4,7.24-.02,4.01,1.44,4.61,2.5,4.5,1.29-.13,3.5-.82,4.49-4.45.59-2.16.58-5.41.26-6.52-.28-.97-1.21-2.06-3.86-.78Z"/>
            <path class="cls-7" d="M22.07,50.33c-2.08-.3-2.8-3.17-2.8-3.17,0,0-2.31,5.21-4.52,6.3-.32.06-.5.87-.7.47-1.18-2.38,1.18-7.71,2.18-7.64,1.75-3.27,4.81-3.54,6.27-2.48,1.34.98,1.58,3.52.65,6.52-.23.75-.5-.29-1.09,0Z"/>
            <path class="cls-3" d="M21.57,51.67s.06-1.27.96-1.54c.77-.23.75.37.52,1.52-.23,1.14-.77,1.89-1.31,2.12s-.18-2.1-.18-2.1Z"/>
            <path class="cls-7" d="M21.61,51.24c.22.76.15,1.75-.2,2.73-.18.5-.43,1.06-.31,1.45.1.34.38.29.49.62.11.34-.07.9-.36,1.32.48-.55.76-1.39.66-1.98-.03-.2-.11-.37-.14-.57-.2-1.09.7-2.66.58-3.8-.05-.47-.27-.8-.42-1.19-.15-.38-.2-.81-.07-1.34-.93,1.28-.49,1.81-.21,2.78Z"/>
            <path class="cls-3" d="M15.28,54.22s-.05-1.22-.95-.63c-.77.51-.76,1.09-.54,2.02s.75,1.17,1.3.88c.54-.29.19-2.28.19-2.28Z"/>
            <path class="cls-7" d="M15.19,54.66c-.21.97-.14,1.89.21,2.53.18.33.43.65.32,1.15-.1.43-.37.65-.48,1.08-.11.45.07.84.37.96-.48-.09-.76-.65-.66-1.34.03-.23.1-.48.14-.71.19-1.28-.71-1.97-.59-3.23.05-.52.26-1.06.42-1.6.15-.53.2-1.01.07-1.41.93.38.49,1.33.22,2.57Z"/>
          </g>
        </g>
      </g>
    </g>
    <g>
      <g>
        <polygon class="cls-13" points="46.31 25.08 44.53 20.11 42.01 18.59 44.66 15.19 46.69 8.84 48.46 13.81 50.99 15.33 48.34 18.73 46.31 25.08"/>
        <polygon class="cls-13" points="46.35 25.12 44.57 20.15 42.05 18.63 44.69 15.23 46.73 8.88 48.5 13.85 51.03 15.37 48.38 18.77 46.35 25.12"/>
        <polygon class="cls-13" points="46.38 25.15 44.61 20.18 42.09 18.67 44.73 15.27 46.77 8.92 48.54 13.88 51.06 15.41 48.42 18.81 46.38 25.15"/>
        <polygon class="cls-13" points="46.42 25.19 44.65 20.22 42.13 18.7 44.77 15.31 46.81 8.96 48.57 13.92 51.1 15.45 48.46 18.85 46.42 25.19"/>
        <polygon class="cls-13" points="46.46 25.23 44.69 20.26 42.17 18.74 44.81 15.34 46.85 9 48.61 13.96 51.14 15.48 48.5 18.88 46.46 25.23"/>
        <polygon class="cls-13" points="46.5 25.27 44.72 20.3 42.2 18.78 44.85 15.38 46.88 9.03 48.65 14 51.18 15.52 48.53 18.92 46.5 25.27"/>
        <polygon class="cls-13" points="46.54 25.31 44.76 20.34 42.24 18.82 44.88 15.42 46.92 9.07 48.69 14.04 51.22 15.56 48.57 18.96 46.54 25.31"/>
        <polygon class="cls-13" points="46.57 25.34 44.8 20.37 42.28 18.86 44.92 15.46 46.96 9.11 48.73 14.07 51.25 15.6 48.61 19 46.57 25.34"/>
        <polygon class="cls-13" points="46.61 25.38 44.84 20.41 42.32 18.89 44.96 15.5 47 9.15 48.76 14.11 51.29 15.64 48.65 19.04 46.61 25.38"/>
        <polygon class="cls-13" points="46.65 25.42 44.88 20.45 42.36 18.93 45 15.53 47.04 9.19 48.8 14.15 51.33 15.67 48.69 19.07 46.65 25.42"/>
        <polygon class="cls-13" points="46.69 25.46 44.91 20.49 42.39 18.97 45.04 15.57 47.07 9.22 48.84 14.19 51.37 15.71 48.72 19.11 46.69 25.46"/>
        <polygon class="cls-13" points="46.73 25.5 44.95 20.53 42.43 19.01 45.07 15.61 47.11 9.26 48.88 14.23 51.41 15.75 48.76 19.15 46.73 25.5"/>
        <polygon class="cls-13" points="46.76 25.53 44.99 20.56 42.47 19.05 45.11 15.65 47.15 9.3 48.92 14.26 51.44 15.79 48.8 19.19 46.76 25.53"/>
        <polygon class="cls-13" points="46.8 25.57 45.03 20.6 42.51 19.08 45.15 15.69 47.19 9.34 48.95 14.3 51.48 15.83 48.84 19.23 46.8 25.57"/>
        <polygon class="cls-13" points="46.84 25.61 45.07 20.64 42.55 19.12 45.19 15.72 47.23 9.38 48.99 14.34 51.52 15.86 48.88 19.26 46.84 25.61"/>
        <polygon class="cls-13" points="46.88 25.65 45.1 20.68 42.58 19.16 45.23 15.76 47.26 9.41 49.03 14.38 51.56 15.9 48.91 19.3 46.88 25.65"/>
        <polygon class="cls-13" points="46.92 25.69 45.14 20.72 42.62 19.2 45.26 15.8 47.3 9.45 49.07 14.42 51.6 15.94 48.95 19.34 46.92 25.69"/>
        <polygon class="cls-13" points="46.95 25.72 45.18 20.75 42.66 19.24 45.3 15.84 47.34 9.49 49.11 14.45 51.63 15.98 48.99 19.38 46.95 25.72"/>
        <polygon class="cls-13" points="46.99 25.76 45.22 20.79 42.7 19.27 45.34 15.88 47.38 9.53 49.15 14.49 51.67 16.02 49.03 19.42 46.99 25.76"/>
        <polygon class="cls-13" points="47.03 25.8 45.26 20.83 42.74 19.31 45.38 15.91 47.42 9.57 49.18 14.53 51.71 16.05 49.07 19.45 47.03 25.8"/>
        <polygon class="cls-13" points="47.07 25.84 45.29 20.87 42.77 19.35 45.42 15.95 47.45 9.6 49.22 14.57 51.75 16.09 49.1 19.49 47.07 25.84"/>
        <polygon class="cls-13" points="47.11 25.88 45.33 20.91 42.81 19.39 45.45 15.99 47.49 9.64 49.26 14.61 51.79 16.13 49.14 19.53 47.11 25.88"/>
        <polygon class="cls-13" points="47.14 25.91 45.37 20.94 42.85 19.43 45.49 16.03 47.53 9.68 49.3 14.65 51.82 16.17 49.18 19.57 47.14 25.91"/>
        <polygon class="cls-13" points="47.18 25.95 45.41 20.98 42.89 19.46 45.53 16.07 47.57 9.72 49.34 14.68 51.86 16.21 49.22 19.61 47.18 25.95"/>
        <polygon class="cls-13" points="47.22 25.99 45.45 21.02 42.93 19.5 45.57 16.1 47.61 9.76 49.37 14.72 51.9 16.24 49.26 19.64 47.22 25.99"/>
        <polygon class="cls-13" points="47.26 26.03 45.48 21.06 42.96 19.54 45.61 16.14 47.64 9.79 49.41 14.76 51.94 16.28 49.29 19.68 47.26 26.03"/>
        <polygon class="cls-13" points="47.3 26.07 45.52 21.1 43 19.58 45.64 16.18 47.68 9.83 49.45 14.8 51.98 16.32 49.33 19.72 47.3 26.07"/>
        <polygon class="cls-13" points="47.33 26.1 45.56 21.13 43.04 19.62 45.68 16.22 47.72 9.87 49.49 14.84 52.01 16.36 49.37 19.76 47.33 26.1"/>
        <polygon class="cls-13" points="47.37 26.14 45.6 21.17 43.08 19.65 45.72 16.26 47.76 9.91 49.53 14.87 52.05 16.4 49.41 19.8 47.37 26.14"/>
        <polygon class="cls-13" points="47.41 26.18 45.64 21.21 43.12 19.69 45.76 16.29 47.8 9.95 49.56 14.91 52.09 16.43 49.45 19.83 47.41 26.18"/>
        <polygon class="cls-13" points="47.45 26.22 45.67 21.25 43.16 19.73 45.8 16.33 47.83 9.98 49.6 14.95 52.13 16.47 49.48 19.87 47.45 26.22"/>
        <polygon class="cls-13" points="47.49 26.26 45.71 21.29 43.19 19.77 45.83 16.37 47.87 10.02 49.64 14.99 52.17 16.51 49.52 19.91 47.49 26.26"/>
        <polygon class="cls-13" points="47.52 26.29 45.75 21.32 43.23 19.81 45.87 16.41 47.91 10.06 49.68 15.03 52.2 16.55 49.56 19.95 47.52 26.29"/>
        <polygon class="cls-13" points="47.56 26.33 45.79 21.36 43.27 19.84 45.91 16.45 47.95 10.1 49.72 15.06 52.24 16.59 49.6 19.99 47.56 26.33"/>
        <polygon class="cls-13" points="47.6 26.37 45.83 21.4 43.31 19.88 45.95 16.49 47.99 10.14 49.75 15.1 52.28 16.63 49.64 20.02 47.6 26.37"/>
        <polygon class="cls-13" points="47.64 26.41 45.87 21.44 43.35 19.92 45.99 16.52 48.02 10.17 49.79 15.14 52.32 16.66 49.68 20.06 47.64 26.41"/>
        <polygon class="cls-13" points="47.68 26.45 45.9 21.48 43.38 19.96 46.02 16.56 48.06 10.21 49.83 15.18 52.36 16.7 49.71 20.1 47.68 26.45"/>
        <polygon class="cls-13" points="47.71 26.49 45.94 21.52 43.42 20 46.06 16.6 48.1 10.25 49.87 15.22 52.39 16.74 49.75 20.14 47.71 26.49"/>
        <polygon class="cls-13" points="47.75 26.52 45.98 21.55 43.46 20.03 46.1 16.64 48.14 10.29 49.91 15.25 52.43 16.78 49.79 20.18 47.75 26.52"/>
        <polygon class="cls-13" points="47.79 26.56 46.02 21.59 43.5 20.07 46.14 16.68 48.18 10.33 49.94 15.29 52.47 16.82 49.83 20.21 47.79 26.56"/>
        <polygon class="cls-13" points="47.83 26.6 46.06 21.63 43.54 20.11 46.18 16.71 48.21 10.36 49.98 15.33 52.51 16.85 49.87 20.25 47.83 26.6"/>
        <polygon class="cls-13" points="47.87 26.64 46.09 21.67 43.57 20.15 46.21 16.75 48.25 10.4 50.02 15.37 52.55 16.89 49.9 20.29 47.87 26.64"/>
        <polygon class="cls-13" points="47.9 26.68 46.13 21.71 43.61 20.19 46.25 16.79 48.29 10.44 50.06 15.41 52.58 16.93 49.94 20.33 47.9 26.68"/>
        <polygon class="cls-13" points="47.94 26.71 46.17 21.74 43.65 20.22 46.29 16.83 48.33 10.48 50.1 15.44 52.62 16.97 49.98 20.37 47.94 26.71"/>
        <polygon class="cls-13" points="47.98 26.75 46.21 21.78 43.69 20.26 46.33 16.87 48.37 10.52 50.13 15.48 52.66 17.01 50.02 20.4 47.98 26.75"/>
        <polygon class="cls-13" points="48.02 26.79 46.25 21.82 43.73 20.3 46.37 16.9 48.41 10.56 50.17 15.52 52.7 17.04 50.06 20.44 48.02 26.79"/>
        <polygon class="cls-13" points="48.06 26.83 46.28 21.86 43.76 20.34 46.4 16.94 48.44 10.59 50.21 15.56 52.74 17.08 50.09 20.48 48.06 26.83"/>
        <polygon class="cls-13" points="48.09 26.87 46.32 21.9 43.8 20.38 46.44 16.98 48.48 10.63 50.25 15.6 52.77 17.12 50.13 20.52 48.09 26.87"/>
        <polygon class="cls-13" points="48.13 26.9 46.36 21.93 43.84 20.42 46.48 17.02 48.52 10.67 50.29 15.63 52.81 17.16 50.17 20.56 48.13 26.9"/>
        <polygon class="cls-13" points="48.17 26.94 46.4 21.97 43.88 20.45 46.52 17.06 48.56 10.71 50.32 15.67 52.85 17.2 50.21 20.59 48.17 26.94"/>
        <polygon class="cls-13" points="48.21 26.98 46.44 22.01 43.92 20.49 46.56 17.09 48.6 10.75 50.36 15.71 52.89 17.23 50.25 20.63 48.21 26.98"/>
        <polygon class="cls-13" points="48.25 27.02 46.47 22.05 43.95 20.53 46.59 17.13 48.63 10.78 50.4 15.75 52.93 17.27 50.28 20.67 48.25 27.02"/>
      </g>
      <g>
        <g>
          <polygon class="cls-13" points="64.78 38.84 61.85 30.62 57.68 28.12 62.05 22.5 65.42 12.01 68.34 20.21 72.51 22.73 68.15 28.35 64.78 38.84"/>
          <polygon class="cls-13" points="64.74 38.8 61.81 30.59 57.65 28.08 62.01 22.46 65.38 11.97 68.3 20.18 72.48 22.69 68.11 28.31 64.74 38.8"/>
          <polygon class="cls-13" points="64.7 38.76 61.77 30.55 57.61 28.04 61.97 22.42 65.34 11.93 68.26 20.14 72.44 22.66 68.07 28.27 64.7 38.76"/>
          <polygon class="cls-13" points="64.67 38.72 61.73 30.51 57.57 28 61.93 22.39 65.3 11.89 68.22 20.1 72.4 22.62 68.03 28.24 64.67 38.72"/>
          <polygon class="cls-13" points="64.63 38.69 61.7 30.47 57.53 27.96 61.9 22.35 65.27 11.86 68.19 20.06 72.36 22.58 67.99 28.2 64.63 38.69"/>
          <polygon class="cls-13" points="64.59 38.65 61.66 30.43 57.49 27.93 61.86 22.31 65.23 11.82 68.15 20.02 72.32 22.54 67.96 28.16 64.59 38.65"/>
          <polygon class="cls-13" points="64.55 38.61 61.62 30.4 57.46 27.89 61.82 22.27 65.19 11.78 68.11 19.99 72.29 22.5 67.92 28.12 64.55 38.61"/>
          <polygon class="cls-13" points="64.51 38.57 61.58 30.36 57.42 27.85 61.78 22.23 65.15 11.74 68.07 19.95 72.25 22.47 67.88 28.08 64.51 38.57"/>
          <polygon class="cls-13" points="64.48 38.53 61.54 30.32 57.38 27.81 61.74 22.2 65.11 11.7 68.03 19.91 72.21 22.43 67.84 28.05 64.48 38.53"/>
          <polygon class="cls-13" points="64.44 38.5 61.51 30.28 57.34 27.77 61.71 22.16 65.08 11.67 68 19.87 72.17 22.39 67.8 28.01 64.44 38.5"/>
          <polygon class="cls-13" points="64.4 38.46 61.47 30.24 57.3 27.73 61.67 22.12 65.04 11.63 67.96 19.83 72.13 22.35 67.77 27.97 64.4 38.46"/>
          <polygon class="cls-13" points="64.36 38.42 61.43 30.21 57.27 27.7 61.63 22.08 65 11.59 67.92 19.79 72.1 22.31 67.73 27.93 64.36 38.42"/>
          <polygon class="cls-13" points="64.32 38.38 61.39 30.17 57.23 27.66 61.59 22.04 64.96 11.55 67.88 19.76 72.06 22.27 67.69 27.89 64.32 38.38"/>
          <polygon class="cls-13" points="64.29 38.34 61.35 30.13 57.19 27.62 61.55 22.01 64.92 11.51 67.84 19.72 72.02 22.24 67.65 27.86 64.29 38.34"/>
          <polygon class="cls-13" points="64.25 38.31 61.32 30.09 57.15 27.58 61.52 21.97 64.89 11.48 67.81 19.68 71.98 22.2 67.61 27.82 64.25 38.31"/>
          <polygon class="cls-13" points="64.21 38.27 61.28 30.05 57.11 27.54 61.48 21.93 64.85 11.44 67.77 19.64 71.94 22.16 67.58 27.78 64.21 38.27"/>
          <polygon class="cls-13" points="64.17 38.23 61.24 30.02 57.08 27.51 61.44 21.89 64.81 11.4 67.73 19.6 71.91 22.12 67.54 27.74 64.17 38.23"/>
          <polygon class="cls-13" points="64.13 38.19 61.2 29.98 57.04 27.47 61.4 21.85 64.77 11.36 67.69 19.57 71.87 22.08 67.5 27.7 64.13 38.19"/>
          <polygon class="cls-13" points="64.1 38.15 61.16 29.94 57 27.43 61.36 21.82 64.73 11.32 67.65 19.53 71.83 22.05 67.46 27.67 64.1 38.15"/>
          <polygon class="cls-13" points="64.06 38.12 61.13 29.9 56.96 27.39 61.33 21.78 64.7 11.28 67.62 19.49 71.79 22.01 67.42 27.63 64.06 38.12"/>
          <polygon class="cls-13" points="64.02 38.08 61.09 29.86 56.92 27.35 61.29 21.74 64.66 11.25 67.58 19.45 71.75 21.97 67.39 27.59 64.02 38.08"/>
          <polygon class="cls-13" points="63.98 38.04 61.05 29.83 56.89 27.32 61.25 21.7 64.62 11.21 67.54 19.41 71.72 21.93 67.35 27.55 63.98 38.04"/>
          <polygon class="cls-13" points="63.94 38 61.01 29.79 56.85 27.28 61.21 21.66 64.58 11.17 67.5 19.38 71.68 21.89 67.31 27.51 63.94 38"/>
          <polygon class="cls-13" points="63.91 37.96 60.97 29.75 56.81 27.24 61.17 21.63 64.54 11.13 67.46 19.34 71.64 21.86 67.27 27.47 63.91 37.96"/>
          <polygon class="cls-13" points="63.87 37.93 60.94 29.71 56.77 27.2 61.14 21.59 64.51 11.09 67.43 19.3 71.6 21.82 67.23 27.44 63.87 37.93"/>
          <polygon class="cls-13" points="63.83 37.89 60.9 29.67 56.73 27.16 61.1 21.55 64.47 11.06 67.39 19.26 71.56 21.78 67.2 27.4 63.83 37.89"/>
          <polygon class="cls-13" points="63.79 37.85 60.86 29.64 56.7 27.13 61.06 21.51 64.43 11.02 67.35 19.22 71.53 21.74 67.16 27.36 63.79 37.85"/>
          <polygon class="cls-13" points="63.75 37.81 60.82 29.6 56.66 27.09 61.02 21.47 64.39 10.98 67.31 19.19 71.49 21.7 67.12 27.32 63.75 37.81"/>
          <polygon class="cls-13" points="63.71 37.77 60.78 29.56 56.62 27.05 60.98 21.44 64.35 10.94 67.27 19.15 71.45 21.67 67.08 27.28 63.71 37.77"/>
          <polygon class="cls-13" points="63.68 37.74 60.75 29.52 56.58 27.01 60.95 21.4 64.32 10.9 67.24 19.11 71.41 21.63 67.04 27.25 63.68 37.74"/>
          <polygon class="cls-13" points="63.64 37.7 60.71 29.48 56.54 26.97 60.91 21.36 64.28 10.87 67.2 19.07 71.37 21.59 67 27.21 63.64 37.7"/>
          <polygon class="cls-13" points="63.6 37.66 60.67 29.45 56.51 26.94 60.87 21.32 64.24 10.83 67.16 19.03 71.34 21.55 66.97 27.17 63.6 37.66"/>
          <polygon class="cls-13" points="63.56 37.62 60.63 29.41 56.47 26.9 60.83 21.28 64.2 10.79 67.12 19 71.3 21.51 66.93 27.13 63.56 37.62"/>
          <polygon class="cls-13" points="63.52 37.58 60.59 29.37 56.43 26.86 60.79 21.24 64.16 10.75 67.08 18.96 71.26 21.48 66.89 27.09 63.52 37.58"/>
          <polygon class="cls-13" points="63.49 37.55 60.56 29.33 56.39 26.82 60.76 21.21 64.13 10.71 67.05 18.92 71.22 21.44 66.85 27.06 63.49 37.55"/>
          <polygon class="cls-13" points="63.45 37.51 60.52 29.29 56.35 26.78 60.72 21.17 64.09 10.68 67.01 18.88 71.18 21.4 66.81 27.02 63.45 37.51"/>
          <polygon class="cls-13" points="63.41 37.47 60.48 29.26 56.31 26.75 60.68 21.13 64.05 10.64 66.97 18.84 71.14 21.36 66.78 26.98 63.41 37.47"/>
          <polygon class="cls-13" points="63.37 37.43 60.44 29.22 56.28 26.71 60.64 21.09 64.01 10.6 66.93 18.81 71.11 21.32 66.74 26.94 63.37 37.43"/>
          <polygon class="cls-13" points="63.33 37.39 60.4 29.18 56.24 26.67 60.6 21.05 63.97 10.56 66.89 18.77 71.07 21.29 66.7 26.9 63.33 37.39"/>
          <polygon class="cls-13" points="63.3 37.36 60.37 29.14 56.2 26.63 60.57 21.02 63.94 10.52 66.86 18.73 71.03 21.25 66.66 26.87 63.3 37.36"/>
          <polygon class="cls-13" points="63.26 37.32 60.33 29.1 56.16 26.59 60.53 20.98 63.9 10.49 66.82 18.69 70.99 21.21 66.62 26.83 63.26 37.32"/>
          <polygon class="cls-13" points="63.22 37.28 60.29 29.07 56.12 26.56 60.49 20.94 63.86 10.45 66.78 18.65 70.95 21.17 66.59 26.79 63.22 37.28"/>
          <polygon class="cls-13" points="63.18 37.24 60.25 29.03 56.09 26.52 60.45 20.9 63.82 10.41 66.74 18.62 70.92 21.13 66.55 26.75 63.18 37.24"/>
          <polygon class="cls-13" points="63.14 37.2 60.21 28.99 56.05 26.48 60.41 20.86 63.78 10.37 66.7 18.58 70.88 21.1 66.51 26.71 63.14 37.2"/>
          <polygon class="cls-13" points="63.11 37.17 60.18 28.95 56.01 26.44 60.38 20.83 63.74 10.33 66.67 18.54 70.84 21.06 66.47 26.68 63.11 37.17"/>
          <polygon class="cls-13" points="63.07 37.13 60.14 28.91 55.97 26.4 60.34 20.79 63.71 10.3 66.63 18.5 70.8 21.02 66.43 26.64 63.07 37.13"/>
          <polygon class="cls-13" points="63.03 37.09 60.1 28.88 55.93 26.37 60.3 20.75 63.67 10.26 66.59 18.46 70.76 20.98 66.4 26.6 63.03 37.09"/>
          <polygon class="cls-13" points="62.99 37.05 60.06 28.84 55.9 26.33 60.26 20.71 63.63 10.22 66.55 18.43 70.73 20.94 66.36 26.56 62.99 37.05"/>
          <polygon class="cls-13" points="62.95 37.01 60.02 28.8 55.86 26.29 60.22 20.67 63.59 10.18 66.51 18.39 70.69 20.91 66.32 26.52 62.95 37.01"/>
          <polygon class="cls-13" points="62.92 36.98 59.99 28.76 55.82 26.25 60.19 20.64 63.55 10.14 66.48 18.35 70.65 20.87 66.28 26.49 62.92 36.98"/>
          <polygon class="cls-13" points="62.88 36.94 59.95 28.72 55.78 26.21 60.15 20.6 63.52 10.11 66.44 18.31 70.61 20.83 66.24 26.45 62.88 36.94"/>
          <polygon class="cls-13" points="62.84 36.9 59.91 28.69 55.74 26.18 60.11 20.56 63.48 10.07 66.4 18.27 70.57 20.79 66.21 26.41 62.84 36.9"/>
        </g>
        <polygon class="cls-12" points="64.78 38.84 61.85 30.62 57.68 28.12 62.05 22.5 65.42 12.01 68.34 20.21 72.51 22.73 68.15 28.35 64.78 38.84"/>
        <polygon class="cls-12" points="48.25 27.02 46.47 22.05 43.95 20.53 46.59 17.13 48.63 10.78 50.4 15.75 52.93 17.27 50.28 20.67 48.25 27.02"/>
      </g>
    </g>
  </g>
</svg>