<?xml version="1.0" encoding="UTF-8"?>
<svg id="Layer_2" data-name="Layer 2" xmlns="http://www.w3.org/2000/svg" viewBox="0 0 106.06 192.06">
  <defs>
    <style>
      .cls-1 {
        fill: #f9c3c0;
      }

      .cls-2 {
        fill: #f2f6f6;
      }

      .cls-3 {
        fill: #dee9e9;
      }

      .cls-4 {
        fill: #cae0dd;
      }

      .cls-5 {
        fill: #bfd4d5;
      }

      .cls-6 {
        fill: #617f88;
      }

      .cls-7 {
        fill: #316ea9;
      }

      .cls-8 {
        fill: #cedee0;
      }

      .cls-9 {
        fill: #b0bec3;
      }

      .cls-10 {
        fill: #2a424b;
      }
    </style>
  </defs>
  <g id="_レイアウト" data-name="レイアウト">
    <g>
      <g>
        <g>
          <path class="cls-5" d="M46.01,170.31c-.87-.5-.84-2.19.07-3.76.91-1.57,2.35-2.44,3.23-1.94.87.5.84,2.19-.07,3.76-.91,1.57-2.35,2.44-3.23,1.94Z"/>
          <path class="cls-6" d="M46.3,162.87l3.01,1.74c-.87-.5-2.32.36-3.23,1.94-.91,1.57-.94,3.26-.07,3.76l-3.01-1.74c-.87-.5-.84-2.19.07-3.76.91-1.57,2.35-2.44,3.23-1.94Z"/>
        </g>
        <g>
          <path class="cls-5" d="M45.46,151.5c-.87-.5-.84-2.19.07-3.76.91-1.57,2.35-2.44,3.23-1.94.87.5.84,2.19-.07,3.76-.91,1.57-2.35,2.44-3.23,1.94Z"/>
          <path class="cls-6" d="M45.75,144.06l3.01,1.74c-.87-.5-2.32.36-3.23,1.94-.91,1.57-.94,3.26-.07,3.76l-3.01-1.74c-.87-.5-.84-2.19.07-3.76.91-1.57,2.35-2.44,3.23-1.94Z"/>
        </g>
        <g>
          <g>
            <path class="cls-5" d="M78.96,151.25c-.87-.5-.84-2.19.07-3.76.91-1.57,2.35-2.44,3.23-1.94.87.5.84,2.19-.07,3.76-.91,1.57-2.35,2.44-3.23,1.94Z"/>
            <path class="cls-6" d="M79.25,143.81l3.01,1.74c-.87-.5-2.32.36-3.23,1.94-.91,1.57-.94,3.26-.07,3.76l-3.01-1.74c-.87-.5-.84-2.19.07-3.76.91-1.57,2.35-2.44,3.23-1.94Z"/>
          </g>
          <g>
            <path class="cls-5" d="M77.87,170.1c-.87-.5-.84-2.19.07-3.76.91-1.57,2.35-2.44,3.23-1.94.87.5.84,2.19-.07,3.76-.91,1.57-2.35,2.44-3.23,1.94Z"/>
            <path class="cls-6" d="M78.15,162.66l3.01,1.74c-.87-.5-2.32.36-3.23,1.94-.91,1.57-.94,3.26-.07,3.76l-3.01-1.74c-.87-.5-.84-2.19.07-3.76.91-1.57,2.35-2.44,3.23-1.94Z"/>
          </g>
          <path class="cls-4" d="M65.56,121.2c0,1.05-1.53,1.89-3.42,1.89s-3.42-.85-3.42-1.89,1.53-1.89,3.42-1.89,3.42.85,3.42,1.89Z"/>
          <path class="cls-10" d="M58.72,152.37v-31.17c0,1.05,1.53,1.89,3.42,1.89s3.42-.85,3.42-1.89v31.17c0,1.05-1.53,1.89-3.42,1.89s-3.42-.85-3.42-1.89Z"/>
          <path class="cls-6" d="M61.77,142.13l35.36-20.42c1.98-1.14,1.98-4,0-5.14l-29.21-16.86c-1.84-1.06-4.1-1.06-5.93,0l-35.36,20.42c-1.98,1.14-1.98,4,0,5.14l29.21,16.86c1.84,1.06,4.1,1.06,5.93,0Z"/>
          <g>
            <path class="cls-5" d="M65.71,95.87c0,1.59.85,3.06,2.22,3.85l30.86,17.81c1.58.91,3.56-.23,3.56-2.05l-4.29-16.38-36.64-21.15,4.29,17.92Z"/>
            <polygon class="cls-9" points="69.42 61.02 61.42 77.95 98.06 99.1 106.06 82.17 69.42 61.02"/>
            <path class="cls-5" d="M103.84,60.9l-30.86-17.81c-1.58-.91-3.56.23-3.56,2.06v15.88l36.64,21.15v-17.42c0-1.59-.85-3.06-2.22-3.85Z"/>
          </g>
          <g>
            <path class="cls-10" d="M42.96,165.17h0c.86.5,1.92.5,2.78,0l33.34-19.25c1.85-1.07,1.85-3.74,0-4.81h0c-.86-.5-1.92-.5-2.78,0l-33.34,19.25c-1.85,1.07-1.85,3.74,0,4.81Z"/>
            <path class="cls-10" d="M42.96,145.92l33.34,19.25c.86.5,1.92.5,2.78,0h0c1.85-1.07,1.85-3.74,0-4.81l-33.34-19.25c-.86-.5-1.92-.5-2.78,0h0c-1.85,1.07-1.85,3.74,0,4.81Z"/>
          </g>
        </g>
      </g>
      <path class="cls-10" d="M42.16,174.08c.18.15.34.38.54.75,1.17,2.1,1.65,3.92,1.54,6.32-.03.74-.07,1.5-.33,2.2-.44,1.19-1.49,2.07-2.65,2.58-1.16.52-2.38.55-3.57.89-.78.22-1.21.91-1.86,1.39-.91.67-1.87,1.26-2.89,1.76-2.62,1.29-5.7,2.12-8.62,2.09-1.07-.01-2.17-.21-3.06-.8s-1.51-1.66-1.36-2.72c.2-1.41,1.59-2.3,2.82-3.02,2.53-1.49,4.72-3.19,6.88-5.16,1.89-1.72,3.21-4.28,4.23-6.63,2.32-.23,4.68-.2,7,0,.67.06,1.02.09,1.33.35Z"/>
      <path class="cls-10" d="M23.64,169.13c.16.17.3.42.47.8.96,2.2,1.26,4.06.91,6.44-.11.74-.22,1.49-.55,2.15-.56,1.14-1.69,1.91-2.89,2.31-1.21.41-2.42.31-3.64.53-.8.14-1.29.79-1.99,1.2-.97.57-1.99,1.07-3.04,1.47-2.73,1.03-5.88,1.55-8.78,1.23-1.06-.12-2.14-.42-2.97-1.1s-1.34-1.8-1.09-2.84c.34-1.39,1.81-2.13,3.1-2.73,2.67-1.23,5.01-2.71,7.36-4.46,2.05-1.53,3.62-3.95,4.86-6.18,2.33,0,4.67.26,6.96.69.66.12,1.01.19,1.29.48Z"/>
      <path class="cls-5" d="M57.46,96.15l.53,9.9-26.34,23.53.41,47.77s2.96,1.17,6.03,1.17,6.03-1.17,6.03-1.17l2.3-41.96,35.77-21.03,1.69-9.31-2.77-11.29-23.67,2.39Z"/>
      <path class="cls-5" d="M46.57,92.07l-1.68,4.81-32.73,22.51,1.85,50.86s1.81.77,5.26.77c3.89,0,5.1-.77,5.1-.77l3.24-43.59,34.28-17.14,7.06-14.92-22.38-2.53Z"/>
      <path class="cls-3" d="M59.02,32.34s5.5-2.4,11.29,0c1.58,1.76,0,2.13,0,2.13l-12.4-.19s.35-1.62,1.11-1.93Z"/>
      <path class="cls-7" d="M82.72,96.46l-1.32-13.37,4.06-36.81c.53-3.18-.74-6.4-4.2-7.97-7.96-3.6-17.27-8.08-32.3-2.17-2.06.81-2.83,3.29-3.54,5.38-.85,2.5-1.27,5.2-1.17,7.85,0,0,.17,4.56.17,4.56.07,8.7.15,17.4.22,26.1.05,5.51-.19,9.36.2,14.86.05.75-1.25,2.8-1.25,2.8,0,0,6.34,3.76,19.74,3.69,14.6-.08,19.4-4.92,19.4-4.92Z"/>
      <path class="cls-1" d="M64.71,41.67c4.07,0,7.38-2.66,7.38-5.95,0-.37-.05-.74-.13-1.09-4.07-1.19-8.68-1.8-14.18-.93-.29.63-.45,1.31-.45,2.03,0,3.29,3.3,5.95,7.38,5.95Z"/>
      <path class="cls-1" d="M64.95,25.63c2.63,0,4.02,1.48,4.02,2.76l1.33,8.58c-.12,1.49-2.65,2.69-5.64,2.69s-5.32-1.2-5.2-2.69l1.29-8.97c.11-1.3,1.56-2.37,4.19-2.37Z"/>
      <path class="cls-1" d="M20.82,48.06l-2.53-3.34-3.19-2.25c-1.26-1.17-2.92-3.1-3.79-4.57-.95-1.6-1.67-2.79-1.89-3.19-.33-.6-.58-1.33-.13-1.55.34-.17.94.43.94.43,0,0-1.4-1.81-1.56-2.09-.17-.28-.42-.86-.03-1.12.38-.26,1.06.17,1.06.17-.57-.75-.51-1.22-.22-1.48.38-.32,1.42.34,1.42.34,0,0,.18-.93,1.66.17,1.33.99,4.23,5.04,4.23,5.04.81.61,1.57,1.22,2.34,1.29.47.04.96-.27,1.15-.71.11-.27.07-1.31.12-1.6.15-.77.97-3.31,2.17-2.89.07.02.13.06.17.12.04.07.05.15.05.23,0,.52-.09,1.07-.17,1.59-.17,1.09-.29,2.19-.44,3.29,0,.03,0,.05-.01.08-.14.87,0,1.74.37,2.54.87,1.92.44,4.35.44,4.35l5.69,7.4-5.62,3.18-2.22-5.45Z"/>
      <path class="cls-3" d="M18.54,49.41l8.06-5.7,13.34,16.84s6.91,8.47,1.18,14.53c-5.86,6.21-10.76-6.51-12.81-10.21-4.34-7.82-9.76-15.46-9.76-15.46Z"/>
      <path class="cls-3" d="M37.33,76.76c-2.94-.26-4.47-5.93-3.79-8.81,1.33-5.62,4.42-14.99,5.96-21.55,1.99-8.49,6.54-10.86,13.49-11.74,3.12,5.9-5.64,26.65-8.63,36.25-.92,2.95-5.06,6.02-7.03,5.85Z"/>
      <path class="cls-5" d="M42.8,73.49c-.23-10.47,1.21-14.67,1.32-25.1l.72,22.35-2.03,2.75Z"/>
      <path class="cls-1" d="M66.03,4.71c7.48.06,9.54,5.67,9.54,12.49,0,8.88-5.84,11.61-8.84,12.48-3.65,1.07-8.19,2.01-10.97-4.98-1.65-4.16-1.59-11.39-.68-14.19.8-2.44,3.46-5.85,10.94-5.79Z"/>
      <path class="cls-10" d="M59.74,11.58c0,.5,0,.99,0,1.49.29-.51.44-1.09.66-1.63.22-.54.54-1.08,1.05-1.37l-.12,1.53c.75-.45,1.4-1.07,1.89-1.8.23-.34.42-.71.71-1,.26-.26.51.52.63.72.22.37.46.73.72,1.07.54.71,1.16,1.35,1.86,1.9,0-.48-.01-.96-.02-1.44,0,.25.42.75.53.99.18.39.34.78.5,1.18.29.76.69,1.45.9,2.24.17-.49.34-.98.49-1.47.58,1.43,1.17,2.91,1.16,4.45,0,.6.46,1.23.59,1.84.04.18.07.36.17.52.15.23.44.24.65.41,1.02.87,1.47,2.16,1.55,3.46,1.43-1.13,3.64-2.54,3.87-4.51.08-.68.04-1.39.26-2.05.14-.41.36-.77.52-1.17.19-.51.25-1.05.31-1.59.14-1.34-.44-2.47-.31-3.8,0-.1.03-.21.13-.25.12-.05.22.07.32.16.21.19.55.22.79.08-.96-1.08-1.55-2.42-2.13-3.74-.29-.65-.54-1.22-.98-1.78-.65-.84-1.53-1.64-2.59-1.64-.15,0-.31.01-.45-.03-.14-.04-.26-.14-.37-.23-1.55-1.28-3.2-3.19-5.26-3.56-.95-.17-1.99-.08-2.82-.57-.06.49.02.99.23,1.43.06.12.1.2,0,.3-.9-.23-1.68-.57-2.65-.44-1.09.15-2.01.77-2.84,1.44-.8.65-1.7,1.03-2.45,1.78-.93.94-1.67,2.04-2.31,3.19-.51.91-1.19,1.88-1.6,2.83-.42.98-.17,2.4.01,3.42.11.61.27,1.22.52,1.8.16.37.39.82.62,1.15.32-.49.28-.88.4-1.4.11-.51.65-.91,1.05-1.2.47-.34.82-.85,1.32-1.13-.11.23-.25.45-.37.67,1.14-.5,2.15-1.29,2.9-2.28Z"/>
      <path class="cls-1" d="M70.84,20.59s.13-2.53,2.31-2.2c1.86.28,1.81,1.49,1.28,3.6-.54,2.11-1.83,3.12-3.14,3.06-1.31-.06-.45-4.46-.45-4.46Z"/>
      <path class="cls-3" d="M53.06,93.01c.62-1.17,1.1-2.41,1.39-3.7.54-2.35-.13-4.3-.3-6.63-.21-2.89-.62-5.79-.62-8.7-.03-13.09.61-26.23,3.18-39.1.05-.24.1-.47.16-.71.01-.11.02-.35.03-.46-.08.02-.17.03-.25.05-2.39.45-4.94,1.23-7.69,2.31-2.06.81-3.09,3.38-3.8,5.47-.85,2.5-1.39,5.25-1.29,7.9,0,0,.18,4.6.18,4.6.06,6.68.18,13.35.27,20.03.08,6.32-1.86,12-4.15,17.89-.88,2.26-1.85,4.5-3.22,6.5-2.13,3.08-3.59,6.09-6.55,8.39,5.92-1.23,10.44-3.17,15.56-6.39,2.89-1.82,5.49-4.4,7.11-7.46Z"/>
      <path class="cls-3" d="M84.62,113.73c-4.34,3.77-11.91,6.91-17.14,9.29,2.75-2.55,6.02-6.77,5.31-10.45-.71-3.69-2.5-7.06-3.91-10.54-1.82-4.51-2.76-9.1-3.48-13.89-.6-3.94-1.41-7.65-1.33-11.71.15-7.93,1.94-15.67,3.2-23.46.15-.96,3.81-18.81,4.16-18.7,0,0,.87.29.87.29,3.09.98,6.48,2.34,9.11,3.53,3.46,1.57,4.58,5.01,4.05,8.19-.2,1.22.12,2.91.04,4.22-.13,2.16-2.4,31.13-2.41,33.29-.02,4.34,3.71,14.1,1.52,29.93Z"/>
      <path class="cls-2" d="M70.3,34.47c-.6,11.79-7.44,26.97-5.54,46.88,3.99-18.59,9.99-35.31,9.99-35.31l-2.66-4.38,3.29-3.64-5.08-5.68v2.13Z"/>
      <path class="cls-2" d="M53.6,80.59c.78-4.89,1.5-43.43,5.42-48.25-1.9.55-5.98,2.83-5.98,2.83l.81,3.81-3.46,4.53s.24,22.51,3.22,37.08Z"/>
      <path class="cls-1" d="M65.2,105.1s-1.8,1.02-2.52,1.49c-.8.51-1.56,1.08-2.27,1.69-1.31,1.13-2.46,2.41-3.43,3.83-.06.09-.12.17-.17.26-.83,1.25-1.43,2.62-2.1,3.93-.17.34-.57.78-.34,1.22.01.02.28.36.31.31,0,.02-.38.79-.08,1.15.24.29.62.41,1.14.04,0,0-.26.51,0,.87.26.36.68.24.88.14.2-.1,1.46-1.01,1.46-1.01,0,0-.39.42-.22.73.91,1.64,3.79-2.18,4.15-2.82.22-.4.42-.82.72-1.17.43-.48,1.04-.77,1.6-1.1,1.26-.73,2.36-1.7,3.24-2.83.83-1.08.84-2.36,1.75-3.35l3.79-3.64-3.87-3.85-4.03,4.11Z"/>
      <path class="cls-8" d="M82.39,38.64c5.35,3.12,9.56,5.59,10.19,15.72l1.17,33.83-21.02,20.75-6.84-6.63,15.7-17.97.11-15.33c.04-4.07-.4-8.12-1.17-12.11-2.57-13.26,1.86-18.27,1.86-18.27Z"/>
    </g>
  </g>
</svg>