<?xml version="1.0" encoding="UTF-8"?>
<svg id="Layer_2" data-name="Layer 2" xmlns="http://www.w3.org/2000/svg" viewBox="0 0 18 20">
  <defs>
    <style>
      .cls-1 {
        fill: #f0ad2c;
        fill-rule: evenodd;
      }
    </style>
  </defs>
  <g id="layout">
    <g id="train_2_line" data-name="train 2 line">
      <path class="cls-1" d="M14,0c2.13,0,3.89,1.67,3.99,3.8v.2s0,9,0,9c0,1.8-1.2,3.38-2.94,3.86l-.19.05,1.73,1.3c.44.33.53.96.2,1.4-.3.4-.86.52-1.3.27l-.1-.07-3.73-2.8h-5.33l-3.73,2.8c-.44.33-1.07.24-1.4-.2-.3-.4-.26-.97.1-1.32l.1-.08,1.73-1.3C1.37,16.51.1,15,0,13.2v-.2s0-9,0-9C0,1.87,1.67.11,3.8,0h.2s10,0,10,0ZM14,2H4c-1.1,0-2,.9-2,2v9c0,1.1.9,2,2,2h10c1.1,0,2-.9,2-2V4c0-1.1-.9-2-2-2M5.25,11.25c.69,0,1.25.56,1.25,1.25s-.56,1.25-1.25,1.25-1.25-.56-1.25-1.25.56-1.25,1.25-1.25M12.75,11.25c.69,0,1.25.56,1.25,1.25s-.56,1.25-1.25,1.25-1.25-.56-1.25-1.25.56-1.25,1.25-1.25M13.5,4c.77,0,1.42.59,1.49,1.36v.14s0,3,0,3c0,.77-.59,1.42-1.36,1.49h-.14s-9,0-9,0c-.77,0-1.42-.59-1.49-1.36v-.14s0-3,0-3c0-.77.59-1.42,1.36-1.49h.14s9,0,9,0ZM13,6h-8v2h8v-2Z"/>
    </g>
  </g>
</svg>