<?xml version="1.0" encoding="UTF-8"?>
<svg id="Layer_2" data-name="Layer 2" xmlns="http://www.w3.org/2000/svg" viewBox="0 0 19.99 20">
  <defs>
    <style>
      .cls-1 {
        fill: #f0ad2c;
      }
    </style>
  </defs>
  <g id="layout">
    <path class="cls-1" d="M5,.28c1.14.83,2.04,1.97,2.8,3.06l.44.64.42.62c.43.63.32,1.49-.26,1.99l-1.95,1.45c-.2.14-.26.4-.14.62.44.8,1.23,2,2.13,2.9.9.9,2.16,1.74,3.02,2.23.22.13.51.05.64-.16l1.27-1.94c.49-.65,1.39-.79,2.06-.33l.66.46c1.24.86,2.57,1.84,3.59,3.14.33.42.4.99.19,1.49-.84,1.96-2.96,3.62-5.17,3.54l-.3-.02-.23-.02-.26-.03-.28-.04-.31-.05c-.05,0-.11-.02-.16-.03l-.34-.07c-.06-.01-.12-.03-.18-.04l-.37-.09-.39-.11-.4-.13c-1.85-.63-4.2-1.86-6.6-4.27-2.41-2.41-3.64-4.75-4.27-6.6l-.13-.4-.11-.39-.09-.37-.08-.35c-.02-.11-.04-.22-.06-.33l-.05-.31-.04-.28-.03-.26-.02-.23-.02-.3C-.08,3.09,1.61.95,3.55.12c.48-.21,1.03-.15,1.45.16M13.15,3.88h.12c1.5.28,2.65,1.47,2.86,2.98.08.55-.3,1.06-.85,1.13-.51.07-.99-.25-1.11-.74l-.02-.12c-.08-.59-.5-1.07-1.07-1.23l-.16-.04c-.54-.1-.91-.62-.81-1.16.09-.5.54-.85,1.04-.83M13.15.84c3.32,0,6.01,2.69,6.01,6.01,0,.55-.45,1-1,1-.51,0-.93-.38-.99-.88v-.12c0-2.11-1.64-3.86-3.75-4h-.26c-.55,0-1-.46-1-1.01s.45-1,1-1"/>
  </g>
</svg>