<?xml version="1.0" encoding="UTF-8"?>
<svg id="Layer_2" data-name="Layer 2" xmlns="http://www.w3.org/2000/svg" viewBox="0 0 21.5 19.62">
  <defs>
    <style>
      .cls-1 {
        fill: none;
        stroke: #f0ad2c;
        stroke-linecap: round;
        stroke-linejoin: round;
        stroke-width: 1.5px;
      }
    </style>
  </defs>
  <g id="_レイアウト" data-name="レイアウト">
    <g>
      <path class="cls-1" d="M.78,7.33c-.25,1.29,1.34,4.86,3.8,7.57,2.28,2.53,4.62,3.94,6.09,3.97,2.14.04,3.47-.74,3.85-1.85.44-1.27-1.1-2.96-2.15-3.02-1.18-.07-1.34.94-2.06,1.22-.81-.24-1.67-.97-3.26-2.79-1.88-2.15-2.38-3.73-2.38-3.73,0,0,1.7-.91,1.82-1.93.13-1.03-1.42-2.82-2.55-2.79-1.13.03-2.86,1.73-3.18,3.36Z"/>
      <path class="cls-1" d="M20.75,9.98c.03-2.37-.86-4.76-2.66-6.56S13.98.75,11.65.75"/>
      <path class="cls-1" d="M17.5,10.6c.03-1.69-.59-3.38-1.88-4.67-1.28-1.28-2.98-1.91-4.67-1.88"/>
    </g>
  </g>
</svg>